%TF.GenerationSoftware,KiCad,Pcbnew,10.0.0*%
%TF.CreationDate,2026-05-06T19:26:16-04:00*%
%TF.ProjectId,RC-Substitution-Box,52432d53-7562-4737-9469-747574696f6e,rev?*%
%TF.SameCoordinates,Original*%
%TF.FileFunction,Paste,Top*%
%TF.FilePolarity,Positive*%
%FSLAX46Y46*%
G04 Gerber Fmt 4.6, Leading zero omitted, Abs format (unit mm)*
G04 Created by KiCad (PCBNEW 10.0.0) date 2026-05-06 19:26:16*
%MOMM*%
%LPD*%
G01*
G04 APERTURE LIST*
G04 Aperture macros list*
%AMRoundRect*
0 Rectangle with rounded corners*
0 $1 Rounding radius*
0 $2 $3 $4 $5 $6 $7 $8 $9 X,Y pos of 4 corners*
0 Add a 4 corners polygon primitive as box body*
4,1,4,$2,$3,$4,$5,$6,$7,$8,$9,$2,$3,0*
0 Add four circle primitives for the rounded corners*
1,1,$1+$1,$2,$3*
1,1,$1+$1,$4,$5*
1,1,$1+$1,$6,$7*
1,1,$1+$1,$8,$9*
0 Add four rect primitives between the rounded corners*
20,1,$1+$1,$2,$3,$4,$5,0*
20,1,$1+$1,$4,$5,$6,$7,0*
20,1,$1+$1,$6,$7,$8,$9,0*
20,1,$1+$1,$8,$9,$2,$3,0*%
G04 Aperture macros list end*
%ADD10RoundRect,0.200000X-0.200000X-0.275000X0.200000X-0.275000X0.200000X0.275000X-0.200000X0.275000X0*%
%ADD11RoundRect,0.200000X-0.275000X0.200000X-0.275000X-0.200000X0.275000X-0.200000X0.275000X0.200000X0*%
%ADD12RoundRect,0.225000X-0.225000X-0.250000X0.225000X-0.250000X0.225000X0.250000X-0.225000X0.250000X0*%
%ADD13RoundRect,0.135000X-0.135000X-0.185000X0.135000X-0.185000X0.135000X0.185000X-0.135000X0.185000X0*%
%ADD14RoundRect,0.140000X-0.140000X-0.170000X0.140000X-0.170000X0.140000X0.170000X-0.140000X0.170000X0*%
G04 APERTURE END LIST*
D10*
%TO.C,R31*%
X86780000Y-68127000D03*
X88430000Y-68127000D03*
%TD*%
%TO.C,R37*%
X86780000Y-81741000D03*
X88430000Y-81741000D03*
%TD*%
D11*
%TO.C,R27*%
X86855000Y-57685000D03*
X86855000Y-59335000D03*
%TD*%
D12*
%TO.C,C2*%
X110182500Y-59703636D03*
X111732500Y-59703636D03*
%TD*%
D13*
%TO.C,R25*%
X132750000Y-81034545D03*
X133770000Y-81034545D03*
%TD*%
D14*
%TO.C,C18*%
X152822500Y-68633636D03*
X153782500Y-68633636D03*
%TD*%
D12*
%TO.C,C11*%
X110182500Y-82686364D03*
X111732500Y-82686364D03*
%TD*%
%TO.C,C1*%
X110182500Y-57150000D03*
X111732500Y-57150000D03*
%TD*%
%TO.C,C12*%
X110182500Y-85240000D03*
X111732500Y-85240000D03*
%TD*%
D14*
%TO.C,C22*%
X152822500Y-78066363D03*
X153782500Y-78066363D03*
%TD*%
%TO.C,C15*%
X152822500Y-61559091D03*
X153782500Y-61559091D03*
%TD*%
D13*
%TO.C,R15*%
X132750000Y-60195455D03*
X133770000Y-60195455D03*
%TD*%
D14*
%TO.C,C23*%
X152822500Y-80424545D03*
X153782500Y-80424545D03*
%TD*%
%TO.C,C20*%
X152822500Y-73350000D03*
X153782500Y-73350000D03*
%TD*%
D12*
%TO.C,C9*%
X110182500Y-77579091D03*
X111732500Y-77579091D03*
%TD*%
D10*
%TO.C,R34*%
X86780000Y-74934000D03*
X88430000Y-74934000D03*
%TD*%
%TO.C,R35*%
X86780000Y-77203000D03*
X88430000Y-77203000D03*
%TD*%
D12*
%TO.C,C10*%
X110182500Y-80132727D03*
X111732500Y-80132727D03*
%TD*%
D13*
%TO.C,R16*%
X132750000Y-62510909D03*
X133770000Y-62510909D03*
%TD*%
D14*
%TO.C,C13*%
X152822500Y-56842727D03*
X153782500Y-56842727D03*
%TD*%
D10*
%TO.C,R36*%
X86780000Y-79472000D03*
X88430000Y-79472000D03*
%TD*%
D12*
%TO.C,C8*%
X110182500Y-75025455D03*
X111732500Y-75025455D03*
%TD*%
D14*
%TO.C,C14*%
X152822500Y-59200909D03*
X153782500Y-59200909D03*
%TD*%
%TO.C,C19*%
X152822500Y-70991818D03*
X153782500Y-70991818D03*
%TD*%
D10*
%TO.C,R30*%
X86780000Y-65858000D03*
X88430000Y-65858000D03*
%TD*%
D12*
%TO.C,C6*%
X110182500Y-69918182D03*
X111732500Y-69918182D03*
%TD*%
D13*
%TO.C,R24*%
X132750000Y-78719091D03*
X133770000Y-78719091D03*
%TD*%
%TO.C,R21*%
X132750000Y-74088182D03*
X133770000Y-74088182D03*
%TD*%
D14*
%TO.C,C24*%
X152822500Y-82782727D03*
X153782500Y-82782727D03*
%TD*%
D10*
%TO.C,R33*%
X86780000Y-72665000D03*
X88430000Y-72665000D03*
%TD*%
D13*
%TO.C,R18*%
X132750000Y-67141818D03*
X133770000Y-67141818D03*
%TD*%
D12*
%TO.C,C7*%
X110182500Y-72471818D03*
X111732500Y-72471818D03*
%TD*%
D13*
%TO.C,R23*%
X132750000Y-76403636D03*
X133770000Y-76403636D03*
%TD*%
D10*
%TO.C,R28*%
X86780000Y-61320000D03*
X88430000Y-61320000D03*
%TD*%
D14*
%TO.C,C21*%
X152822500Y-75708182D03*
X153782500Y-75708182D03*
%TD*%
D12*
%TO.C,C5*%
X110182500Y-67364545D03*
X111732500Y-67364545D03*
%TD*%
D14*
%TO.C,C16*%
X152822500Y-63917272D03*
X153782500Y-63917272D03*
%TD*%
D12*
%TO.C,C4*%
X110182500Y-64810909D03*
X111732500Y-64810909D03*
%TD*%
D13*
%TO.C,R14*%
X132750000Y-57880000D03*
X133770000Y-57880000D03*
%TD*%
%TO.C,R17*%
X132750000Y-64826364D03*
X133770000Y-64826364D03*
%TD*%
D12*
%TO.C,C3*%
X110182500Y-62257273D03*
X111732500Y-62257273D03*
%TD*%
D10*
%TO.C,R32*%
X86780000Y-70396000D03*
X88430000Y-70396000D03*
%TD*%
%TO.C,R29*%
X86780000Y-63589000D03*
X88430000Y-63589000D03*
%TD*%
%TO.C,R38*%
X86780000Y-84010000D03*
X88430000Y-84010000D03*
%TD*%
D13*
%TO.C,R19*%
X132750000Y-69457273D03*
X133770000Y-69457273D03*
%TD*%
D14*
%TO.C,C17*%
X152822500Y-66275454D03*
X153782500Y-66275454D03*
%TD*%
D13*
%TO.C,R20*%
X132750000Y-71772727D03*
X133770000Y-71772727D03*
%TD*%
%TO.C,R26*%
X132750000Y-83350000D03*
X133770000Y-83350000D03*
%TD*%
M02*
