M48
; DRILL file KiCad 10.0.0 date 2026-05-06T19:26:39
; FORMAT={-:-/ absolute / metric / decimal}
; #@! TF.CreationDate,2026-05-06T19:26:39-04:00
; #@! TF.GenerationSoftware,Kicad,Pcbnew,10.0.0
; #@! TF.FileFunction,Plated,1,2,PTH
FMAT,2
METRIC
; #@! TA.AperFunction,Plated,PTH,ComponentDrill
T1C0.800
; #@! TA.AperFunction,Plated,PTH,ComponentDrill
T2C1.000
; #@! TA.AperFunction,Plated,PTH,ComponentDrill
T3C1.300
; #@! TA.AperFunction,Plated,PTH,ComponentDrill
T4C3.200
%
G90
G05
T1
X76.235Y-57.15
X76.235Y-59.69
X76.235Y-62.23
X76.235Y-64.77
X76.235Y-67.31
X76.235Y-69.85
X76.235Y-72.39
X76.235Y-74.93
X76.235Y-77.47
X76.235Y-80.01
X76.235Y-82.55
X76.235Y-85.09
X83.855Y-57.15
X83.855Y-59.69
X83.855Y-62.23
X83.855Y-64.77
X83.855Y-67.31
X83.855Y-69.85
X83.855Y-72.39
X83.855Y-74.93
X83.855Y-77.47
X83.855Y-80.01
X83.855Y-82.55
X83.855Y-85.09
X99.415Y-57.03
X99.415Y-59.57
X99.415Y-62.11
X99.415Y-64.65
X99.415Y-67.19
X99.415Y-69.73
X99.415Y-72.27
X99.415Y-74.81
X99.415Y-77.35
X99.415Y-79.89
X99.415Y-82.43
X99.415Y-84.97
X107.035Y-57.03
X107.035Y-59.57
X107.035Y-62.11
X107.035Y-64.65
X107.035Y-67.19
X107.035Y-69.73
X107.035Y-72.27
X107.035Y-74.81
X107.035Y-77.35
X107.035Y-79.89
X107.035Y-82.43
X107.035Y-84.97
X122.65Y-56.95
X122.65Y-59.49
X122.65Y-62.03
X122.65Y-64.57
X122.65Y-67.11
X122.65Y-69.65
X122.65Y-72.19
X122.65Y-74.73
X122.65Y-77.27
X122.65Y-79.81
X122.65Y-82.35
X122.65Y-84.89
X130.27Y-56.95
X130.27Y-59.49
X130.27Y-62.03
X130.27Y-64.57
X130.27Y-67.11
X130.27Y-69.65
X130.27Y-72.19
X130.27Y-74.73
X130.27Y-77.27
X130.27Y-79.81
X130.27Y-82.35
X130.27Y-84.89
X142.822Y-56.91
X142.822Y-59.45
X142.822Y-61.99
X142.822Y-64.53
X142.822Y-67.07
X142.822Y-69.61
X142.822Y-72.15
X142.822Y-74.69
X142.822Y-77.23
X142.822Y-79.77
X142.822Y-82.31
X142.822Y-84.85
X150.442Y-56.91
X150.442Y-59.45
X150.442Y-61.99
X150.442Y-64.53
X150.442Y-67.07
X150.442Y-69.61
X150.442Y-72.15
X150.442Y-74.69
X150.442Y-77.23
X150.442Y-79.77
X150.442Y-82.31
X150.442Y-84.85
X161.88Y-56.91
X161.88Y-59.45
X161.88Y-61.99
X161.88Y-64.53
X161.88Y-67.07
X161.88Y-69.61
X161.88Y-72.15
X161.88Y-74.69
X161.88Y-77.23
X161.88Y-79.77
X161.88Y-82.31
X161.88Y-84.85
X169.5Y-56.91
X169.5Y-59.45
X169.5Y-61.99
X169.5Y-64.53
X169.5Y-67.07
X169.5Y-69.61
X169.5Y-72.15
X169.5Y-74.69
X169.5Y-77.23
X169.5Y-79.77
X169.5Y-82.31
X169.5Y-84.85
X174.3Y-50.8
X174.3Y-58.42
X174.4Y-61.58
X174.4Y-69.2
X174.4Y-72.78
X174.4Y-80.4
X174.5Y-84.0
X174.5Y-91.62
X177.8Y-61.59
X177.8Y-69.21
X177.9Y-50.79
X177.9Y-58.41
X177.9Y-72.78
X177.9Y-80.4
X178.0Y-84.0
X178.0Y-91.62
X181.4Y-50.79
X181.4Y-58.41
X181.4Y-61.6
X181.4Y-69.22
X181.4Y-72.78
X181.4Y-80.4
X181.4Y-83.98
X181.4Y-91.6
X189.88Y-56.96
X189.88Y-59.5
X189.88Y-62.04
X189.88Y-64.58
X189.88Y-67.12
X189.88Y-69.66
X189.88Y-72.2
X189.88Y-74.74
X189.88Y-77.28
X189.88Y-79.82
X189.88Y-82.36
X189.88Y-84.9
X197.5Y-56.96
X197.5Y-59.5
X197.5Y-62.04
X197.5Y-64.58
X197.5Y-67.12
X197.5Y-69.66
X197.5Y-72.2
X197.5Y-74.74
X197.5Y-77.28
X197.5Y-79.82
X197.5Y-82.36
X197.5Y-84.9
X202.0Y-52.5
X202.0Y-56.5
X202.0Y-60.5
X202.0Y-64.5
X202.0Y-68.5
X202.0Y-72.5
X202.0Y-76.5
X202.0Y-80.5
X202.0Y-84.5
X202.0Y-88.5
X202.0Y-92.5
X202.0Y-96.5
X207.0Y-52.5
X207.0Y-56.5
X207.0Y-60.5
X207.0Y-64.5
X207.0Y-68.5
X207.0Y-72.5
X207.0Y-76.5
X207.0Y-80.5
X207.0Y-84.5
X207.0Y-88.5
X207.0Y-92.5
X207.0Y-96.5
T2
X77.46Y-96.0
X80.0Y-93.46
X80.0Y-98.54
T3
X77.502Y-108.562
X82.502Y-108.562
X100.682Y-108.562
X105.682Y-108.562
X123.917Y-108.562
X128.917Y-108.562
X144.09Y-108.562
X149.09Y-108.562
X163.147Y-108.562
X168.147Y-108.562
X191.147Y-108.562
X196.147Y-108.562
T4
X68.5Y-46.5
X68.5Y-113.0
X205.0Y-46.5
X205.0Y-113.0
M30
