%TF.GenerationSoftware,KiCad,Pcbnew,10.0.0*%
%TF.CreationDate,2026-05-06T19:26:16-04:00*%
%TF.ProjectId,RC-Substitution-Box,52432d53-7562-4737-9469-747574696f6e,rev?*%
%TF.SameCoordinates,Original*%
%TF.FileFunction,Copper,L2,Bot*%
%TF.FilePolarity,Positive*%
%FSLAX46Y46*%
G04 Gerber Fmt 4.6, Leading zero omitted, Abs format (unit mm)*
G04 Created by KiCad (PCBNEW 10.0.0) date 2026-05-06 19:26:16*
%MOMM*%
%LPD*%
G01*
G04 APERTURE LIST*
G04 Aperture macros list*
%AMRoundRect*
0 Rectangle with rounded corners*
0 $1 Rounding radius*
0 $2 $3 $4 $5 $6 $7 $8 $9 X,Y pos of 4 corners*
0 Add a 4 corners polygon primitive as box body*
4,1,4,$2,$3,$4,$5,$6,$7,$8,$9,$2,$3,0*
0 Add four circle primitives for the rounded corners*
1,1,$1+$1,$2,$3*
1,1,$1+$1,$4,$5*
1,1,$1+$1,$6,$7*
1,1,$1+$1,$8,$9*
0 Add four rect primitives between the rounded corners*
20,1,$1+$1,$2,$3,$4,$5,0*
20,1,$1+$1,$4,$5,$6,$7,0*
20,1,$1+$1,$6,$7,$8,$9,0*
20,1,$1+$1,$8,$9,$2,$3,0*%
G04 Aperture macros list end*
%TA.AperFunction,ComponentPad*%
%ADD10C,1.600000*%
%TD*%
%TA.AperFunction,ComponentPad*%
%ADD11C,6.400000*%
%TD*%
%TA.AperFunction,ComponentPad*%
%ADD12RoundRect,0.250000X-0.550000X-0.550000X0.550000X-0.550000X0.550000X0.550000X-0.550000X0.550000X0*%
%TD*%
%TA.AperFunction,ComponentPad*%
%ADD13C,2.600000*%
%TD*%
%TA.AperFunction,ComponentPad*%
%ADD14RoundRect,0.250000X-1.050000X-1.050000X1.050000X-1.050000X1.050000X1.050000X-1.050000X1.050000X0*%
%TD*%
G04 APERTURE END LIST*
D10*
%TO.P,R22,1*%
%TO.N,Net-(JP1-B)*%
X80000000Y-98540000D03*
%TO.P,R22,2*%
%TO.N,Net-(J14-Pin_2)*%
X77460000Y-96000000D03*
%TO.P,R22,3*%
%TO.N,unconnected-(R22-Pad3)*%
X80000000Y-93460000D03*
%TD*%
%TO.P,R42,2*%
%TO.N,Net-(R42-Pad2)*%
X174400000Y-69200000D03*
%TO.P,R42,1*%
%TO.N,Net-(R41-Pad2)*%
X174400000Y-61580000D03*
%TD*%
%TO.P,R44,2*%
%TO.N,Net-(R44-Pad2)*%
X181400000Y-69220000D03*
%TO.P,R44,1*%
%TO.N,Net-(R43-Pad2)*%
X181400000Y-61600000D03*
%TD*%
%TO.P,R43,2*%
%TO.N,Net-(R43-Pad2)*%
X177800000Y-61590000D03*
%TO.P,R43,1*%
%TO.N,Net-(R42-Pad2)*%
X177800000Y-69210000D03*
%TD*%
D11*
%TO.P,H1,1*%
%TO.N,N/C*%
X68500000Y-46500000D03*
%TD*%
%TO.P,H2,1*%
%TO.N,N/C*%
X68500000Y-113000000D03*
%TD*%
%TO.P,H3,1*%
%TO.N,N/C*%
X205000000Y-46500000D03*
%TD*%
%TO.P,H4,1*%
%TO.N,N/C*%
X205000000Y-113000000D03*
%TD*%
D10*
%TO.P,R39,1*%
%TO.N,Net-(J15-Pin_2)*%
X174300000Y-50800000D03*
%TO.P,R39,2*%
%TO.N,Net-(R39-Pad2)*%
X174300000Y-58420000D03*
%TD*%
%TO.P,R50,1*%
%TO.N,Net-(R49-Pad2)*%
X181400000Y-91600000D03*
%TO.P,R50,2*%
%TO.N,Net-(J15-Pin_1)*%
X181400000Y-83980000D03*
%TD*%
D12*
%TO.P,SW5,1*%
%TO.N,Net-(R39-Pad2)*%
X161880000Y-56910000D03*
D10*
%TO.P,SW5,2*%
%TO.N,Net-(R40-Pad2)*%
X161880000Y-59450000D03*
%TO.P,SW5,3*%
%TO.N,Net-(R41-Pad2)*%
X161880000Y-61990000D03*
%TO.P,SW5,4*%
%TO.N,Net-(R42-Pad2)*%
X161880000Y-64530000D03*
%TO.P,SW5,5*%
%TO.N,Net-(R43-Pad2)*%
X161880000Y-67070000D03*
%TO.P,SW5,6*%
%TO.N,Net-(R44-Pad2)*%
X161880000Y-69610000D03*
%TO.P,SW5,7*%
%TO.N,Net-(R45-Pad2)*%
X161880000Y-72150000D03*
%TO.P,SW5,8*%
%TO.N,Net-(R46-Pad2)*%
X161880000Y-74690000D03*
%TO.P,SW5,9*%
%TO.N,Net-(R47-Pad2)*%
X161880000Y-77230000D03*
%TO.P,SW5,10*%
%TO.N,Net-(R48-Pad2)*%
X161880000Y-79770000D03*
%TO.P,SW5,11*%
%TO.N,Net-(R49-Pad2)*%
X161880000Y-82310000D03*
%TO.P,SW5,12*%
%TO.N,Net-(J15-Pin_1)*%
X161880000Y-84850000D03*
%TO.P,SW5,13*%
%TO.N,Net-(R49-Pad2)*%
X169500000Y-84850000D03*
%TO.P,SW5,14*%
%TO.N,Net-(R48-Pad2)*%
X169500000Y-82310000D03*
%TO.P,SW5,15*%
%TO.N,Net-(R47-Pad2)*%
X169500000Y-79770000D03*
%TO.P,SW5,16*%
%TO.N,Net-(R46-Pad2)*%
X169500000Y-77230000D03*
%TO.P,SW5,17*%
%TO.N,Net-(R45-Pad2)*%
X169500000Y-74690000D03*
%TO.P,SW5,18*%
%TO.N,Net-(R44-Pad2)*%
X169500000Y-72150000D03*
%TO.P,SW5,19*%
%TO.N,Net-(R43-Pad2)*%
X169500000Y-69610000D03*
%TO.P,SW5,20*%
%TO.N,Net-(R42-Pad2)*%
X169500000Y-67070000D03*
%TO.P,SW5,21*%
%TO.N,Net-(R41-Pad2)*%
X169500000Y-64530000D03*
%TO.P,SW5,22*%
%TO.N,Net-(R40-Pad2)*%
X169500000Y-61990000D03*
%TO.P,SW5,23*%
%TO.N,Net-(R39-Pad2)*%
X169500000Y-59450000D03*
%TO.P,SW5,24*%
%TO.N,Net-(J15-Pin_2)*%
X169500000Y-56910000D03*
%TD*%
D13*
%TO.P,J5,2,Pin_2_2*%
%TO.N,Net-(J5-Pin_2)*%
X149090000Y-108562500D03*
D14*
%TO.P,J5,1,Pin_1_1*%
%TO.N,Net-(J5-Pin_1)*%
X144090000Y-108562500D03*
%TD*%
D13*
%TO.P,J14,2,Pin_2_2*%
%TO.N,Net-(J14-Pin_2)*%
X82502500Y-108562500D03*
D14*
%TO.P,J14,1,Pin_1_1*%
%TO.N,Net-(J14-Pin_1)*%
X77502500Y-108562500D03*
%TD*%
D13*
%TO.P,J6,2,Pin_2_2*%
%TO.N,Net-(J6-Pin_2)*%
X105682500Y-108562500D03*
D14*
%TO.P,J6,1,Pin_1_1*%
%TO.N,Net-(J6-Pin_1)*%
X100682500Y-108562500D03*
%TD*%
D13*
%TO.P,J7,2,Pin_2_2*%
%TO.N,Net-(J7-Pin_2)*%
X196147500Y-108562500D03*
D14*
%TO.P,J7,1,Pin_1_1*%
%TO.N,Net-(J7-Pin_1)*%
X191147500Y-108562500D03*
%TD*%
D13*
%TO.P,J13,2,Pin_2_2*%
%TO.N,Net-(J13-Pin_2)*%
X128917500Y-108562500D03*
D14*
%TO.P,J13,1,Pin_1_1*%
%TO.N,Net-(J13-Pin_1)*%
X123917500Y-108562500D03*
%TD*%
D10*
%TO.P,SW3,24*%
%TO.N,Net-(J13-Pin_2)*%
X130270000Y-56950000D03*
%TO.P,SW3,23*%
%TO.N,Net-(R14-Pad2)*%
X130270000Y-59490000D03*
%TO.P,SW3,22*%
%TO.N,Net-(R15-Pad2)*%
X130270000Y-62030000D03*
%TO.P,SW3,21*%
%TO.N,Net-(R16-Pad2)*%
X130270000Y-64570000D03*
%TO.P,SW3,20*%
%TO.N,Net-(R17-Pad2)*%
X130270000Y-67110000D03*
%TO.P,SW3,19*%
%TO.N,Net-(R18-Pad2)*%
X130270000Y-69650000D03*
%TO.P,SW3,18*%
%TO.N,Net-(R19-Pad2)*%
X130270000Y-72190000D03*
%TO.P,SW3,17*%
%TO.N,Net-(R20-Pad2)*%
X130270000Y-74730000D03*
%TO.P,SW3,16*%
%TO.N,Net-(R21-Pad2)*%
X130270000Y-77270000D03*
%TO.P,SW3,15*%
%TO.N,Net-(R23-Pad2)*%
X130270000Y-79810000D03*
%TO.P,SW3,14*%
%TO.N,Net-(R24-Pad2)*%
X130270000Y-82350000D03*
%TO.P,SW3,13*%
%TO.N,Net-(R25-Pad2)*%
X130270000Y-84890000D03*
%TO.P,SW3,12*%
%TO.N,Net-(J13-Pin_1)*%
X122650000Y-84890000D03*
%TO.P,SW3,11*%
%TO.N,Net-(R25-Pad2)*%
X122650000Y-82350000D03*
%TO.P,SW3,10*%
%TO.N,Net-(R24-Pad2)*%
X122650000Y-79810000D03*
%TO.P,SW3,9*%
%TO.N,Net-(R23-Pad2)*%
X122650000Y-77270000D03*
%TO.P,SW3,8*%
%TO.N,Net-(R21-Pad2)*%
X122650000Y-74730000D03*
%TO.P,SW3,7*%
%TO.N,Net-(R20-Pad2)*%
X122650000Y-72190000D03*
%TO.P,SW3,6*%
%TO.N,Net-(R19-Pad2)*%
X122650000Y-69650000D03*
%TO.P,SW3,5*%
%TO.N,Net-(R18-Pad2)*%
X122650000Y-67110000D03*
%TO.P,SW3,4*%
%TO.N,Net-(R17-Pad2)*%
X122650000Y-64570000D03*
%TO.P,SW3,3*%
%TO.N,Net-(R16-Pad2)*%
X122650000Y-62030000D03*
%TO.P,SW3,2*%
%TO.N,Net-(R15-Pad2)*%
X122650000Y-59490000D03*
D12*
%TO.P,SW3,1*%
%TO.N,Net-(R14-Pad2)*%
X122650000Y-56950000D03*
%TD*%
D10*
%TO.P,C25,1*%
%TO.N,Net-(C25-Pad1)*%
X202000000Y-52500000D03*
%TO.P,C25,2*%
%TO.N,Net-(J7-Pin_2)*%
X207000000Y-52500000D03*
%TD*%
%TO.P,C26,1*%
%TO.N,Net-(C26-Pad1)*%
X202000000Y-56500000D03*
%TO.P,C26,2*%
%TO.N,Net-(J7-Pin_2)*%
X207000000Y-56500000D03*
%TD*%
%TO.P,C28,1*%
%TO.N,Net-(C28-Pad1)*%
X202000000Y-64500000D03*
%TO.P,C28,2*%
%TO.N,Net-(J7-Pin_2)*%
X207000000Y-64500000D03*
%TD*%
%TO.P,C27,2*%
%TO.N,Net-(J7-Pin_2)*%
X207000000Y-60500000D03*
%TO.P,C27,1*%
%TO.N,Net-(C27-Pad1)*%
X202000000Y-60500000D03*
%TD*%
%TO.P,C30,2*%
%TO.N,Net-(J7-Pin_2)*%
X207000000Y-72500000D03*
%TO.P,C30,1*%
%TO.N,Net-(C30-Pad1)*%
X202000000Y-72500000D03*
%TD*%
%TO.P,C31,2*%
%TO.N,Net-(J7-Pin_2)*%
X207000000Y-76500000D03*
%TO.P,C31,1*%
%TO.N,Net-(C31-Pad1)*%
X202000000Y-76500000D03*
%TD*%
%TO.P,C29,2*%
%TO.N,Net-(J7-Pin_2)*%
X207000000Y-68500000D03*
%TO.P,C29,1*%
%TO.N,Net-(C29-Pad1)*%
X202000000Y-68500000D03*
%TD*%
%TO.P,C32,2*%
%TO.N,Net-(J7-Pin_2)*%
X207000000Y-80500000D03*
%TO.P,C32,1*%
%TO.N,Net-(C32-Pad1)*%
X202000000Y-80500000D03*
%TD*%
%TO.P,C36,2*%
%TO.N,Net-(J7-Pin_2)*%
X207000000Y-96500000D03*
%TO.P,C36,1*%
%TO.N,Net-(C36-Pad1)*%
X202000000Y-96500000D03*
%TD*%
%TO.P,C35,2*%
%TO.N,Net-(J7-Pin_2)*%
X207000000Y-92500000D03*
%TO.P,C35,1*%
%TO.N,Net-(C35-Pad1)*%
X202000000Y-92500000D03*
%TD*%
%TO.P,C33,2*%
%TO.N,Net-(J7-Pin_2)*%
X207000000Y-84500000D03*
%TO.P,C33,1*%
%TO.N,Net-(C33-Pad1)*%
X202000000Y-84500000D03*
%TD*%
%TO.P,C34,2*%
%TO.N,Net-(J7-Pin_2)*%
X207000000Y-88500000D03*
%TO.P,C34,1*%
%TO.N,Net-(C34-Pad1)*%
X202000000Y-88500000D03*
%TD*%
D12*
%TO.P,SW7,1*%
%TO.N,Net-(J7-Pin_1)*%
X189880000Y-56960000D03*
D10*
%TO.P,SW7,2*%
X189880000Y-59500000D03*
%TO.P,SW7,3*%
X189880000Y-62040000D03*
%TO.P,SW7,4*%
X189880000Y-64580000D03*
%TO.P,SW7,5*%
X189880000Y-67120000D03*
%TO.P,SW7,6*%
X189880000Y-69660000D03*
%TO.P,SW7,7*%
X189880000Y-72200000D03*
%TO.P,SW7,8*%
X189880000Y-74740000D03*
%TO.P,SW7,9*%
X189880000Y-77280000D03*
%TO.P,SW7,10*%
X189880000Y-79820000D03*
%TO.P,SW7,11*%
X189880000Y-82360000D03*
%TO.P,SW7,12*%
X189880000Y-84900000D03*
%TO.P,SW7,13*%
%TO.N,Net-(C36-Pad1)*%
X197500000Y-84900000D03*
%TO.P,SW7,14*%
%TO.N,Net-(C35-Pad1)*%
X197500000Y-82360000D03*
%TO.P,SW7,15*%
%TO.N,Net-(C34-Pad1)*%
X197500000Y-79820000D03*
%TO.P,SW7,16*%
%TO.N,Net-(C33-Pad1)*%
X197500000Y-77280000D03*
%TO.P,SW7,17*%
%TO.N,Net-(C32-Pad1)*%
X197500000Y-74740000D03*
%TO.P,SW7,18*%
%TO.N,Net-(C31-Pad1)*%
X197500000Y-72200000D03*
%TO.P,SW7,19*%
%TO.N,Net-(C30-Pad1)*%
X197500000Y-69660000D03*
%TO.P,SW7,20*%
%TO.N,Net-(C29-Pad1)*%
X197500000Y-67120000D03*
%TO.P,SW7,21*%
%TO.N,Net-(C28-Pad1)*%
X197500000Y-64580000D03*
%TO.P,SW7,22*%
%TO.N,Net-(C27-Pad1)*%
X197500000Y-62040000D03*
%TO.P,SW7,23*%
%TO.N,Net-(C26-Pad1)*%
X197500000Y-59500000D03*
%TO.P,SW7,24*%
%TO.N,Net-(C25-Pad1)*%
X197500000Y-56960000D03*
%TD*%
D12*
%TO.P,SW4,1*%
%TO.N,Net-(J5-Pin_1)*%
X142822500Y-56910000D03*
D10*
%TO.P,SW4,2*%
X142822500Y-59450000D03*
%TO.P,SW4,3*%
X142822500Y-61990000D03*
%TO.P,SW4,4*%
X142822500Y-64530000D03*
%TO.P,SW4,5*%
X142822500Y-67070000D03*
%TO.P,SW4,6*%
X142822500Y-69610000D03*
%TO.P,SW4,7*%
X142822500Y-72150000D03*
%TO.P,SW4,8*%
X142822500Y-74690000D03*
%TO.P,SW4,9*%
X142822500Y-77230000D03*
%TO.P,SW4,10*%
X142822500Y-79770000D03*
%TO.P,SW4,11*%
X142822500Y-82310000D03*
%TO.P,SW4,12*%
X142822500Y-84850000D03*
%TO.P,SW4,13*%
%TO.N,Net-(C24-Pad1)*%
X150442500Y-84850000D03*
%TO.P,SW4,14*%
%TO.N,Net-(C23-Pad1)*%
X150442500Y-82310000D03*
%TO.P,SW4,15*%
%TO.N,Net-(C22-Pad1)*%
X150442500Y-79770000D03*
%TO.P,SW4,16*%
%TO.N,Net-(C21-Pad1)*%
X150442500Y-77230000D03*
%TO.P,SW4,17*%
%TO.N,Net-(C20-Pad1)*%
X150442500Y-74690000D03*
%TO.P,SW4,18*%
%TO.N,Net-(C19-Pad1)*%
X150442500Y-72150000D03*
%TO.P,SW4,19*%
%TO.N,Net-(C18-Pad1)*%
X150442500Y-69610000D03*
%TO.P,SW4,20*%
%TO.N,Net-(C17-Pad1)*%
X150442500Y-67070000D03*
%TO.P,SW4,21*%
%TO.N,Net-(C16-Pad1)*%
X150442500Y-64530000D03*
%TO.P,SW4,22*%
%TO.N,Net-(C15-Pad1)*%
X150442500Y-61990000D03*
%TO.P,SW4,23*%
%TO.N,Net-(C14-Pad1)*%
X150442500Y-59450000D03*
%TO.P,SW4,24*%
%TO.N,Net-(C13-Pad1)*%
X150442500Y-56910000D03*
%TD*%
%TO.P,R49,1*%
%TO.N,Net-(R48-Pad2)*%
X178000000Y-91620000D03*
%TO.P,R49,2*%
%TO.N,Net-(R49-Pad2)*%
X178000000Y-84000000D03*
%TD*%
%TO.P,R48,1*%
%TO.N,Net-(R47-Pad2)*%
X174500000Y-84000000D03*
%TO.P,R48,2*%
%TO.N,Net-(R48-Pad2)*%
X174500000Y-91620000D03*
%TD*%
%TO.P,R47,1*%
%TO.N,Net-(R46-Pad2)*%
X181400000Y-72780000D03*
%TO.P,R47,2*%
%TO.N,Net-(R47-Pad2)*%
X181400000Y-80400000D03*
%TD*%
%TO.P,R46,1*%
%TO.N,Net-(R45-Pad2)*%
X177900000Y-80400000D03*
%TO.P,R46,2*%
%TO.N,Net-(R46-Pad2)*%
X177900000Y-72780000D03*
%TD*%
%TO.P,R45,1*%
%TO.N,Net-(R44-Pad2)*%
X174400000Y-72780000D03*
%TO.P,R45,2*%
%TO.N,Net-(R45-Pad2)*%
X174400000Y-80400000D03*
%TD*%
%TO.P,R41,1*%
%TO.N,Net-(R40-Pad2)*%
X181400000Y-50790000D03*
%TO.P,R41,2*%
%TO.N,Net-(R41-Pad2)*%
X181400000Y-58410000D03*
%TD*%
%TO.P,R40,1*%
%TO.N,Net-(R39-Pad2)*%
X177900000Y-50790000D03*
%TO.P,R40,2*%
%TO.N,Net-(R40-Pad2)*%
X177900000Y-58410000D03*
%TD*%
D12*
%TO.P,SW6,1*%
%TO.N,Net-(R27-Pad2)*%
X76235000Y-57150000D03*
D10*
%TO.P,SW6,2*%
%TO.N,Net-(R28-Pad2)*%
X76235000Y-59690000D03*
%TO.P,SW6,3*%
%TO.N,Net-(R29-Pad2)*%
X76235000Y-62230000D03*
%TO.P,SW6,4*%
%TO.N,Net-(R30-Pad2)*%
X76235000Y-64770000D03*
%TO.P,SW6,5*%
%TO.N,Net-(R31-Pad2)*%
X76235000Y-67310000D03*
%TO.P,SW6,6*%
%TO.N,Net-(R32-Pad2)*%
X76235000Y-69850000D03*
%TO.P,SW6,7*%
%TO.N,Net-(R33-Pad2)*%
X76235000Y-72390000D03*
%TO.P,SW6,8*%
%TO.N,Net-(R34-Pad2)*%
X76235000Y-74930000D03*
%TO.P,SW6,9*%
%TO.N,Net-(R35-Pad2)*%
X76235000Y-77470000D03*
%TO.P,SW6,10*%
%TO.N,Net-(R36-Pad2)*%
X76235000Y-80010000D03*
%TO.P,SW6,11*%
%TO.N,Net-(R37-Pad2)*%
X76235000Y-82550000D03*
%TO.P,SW6,12*%
%TO.N,Net-(J14-Pin_1)*%
X76235000Y-85090000D03*
%TO.P,SW6,13*%
%TO.N,Net-(R37-Pad2)*%
X83855000Y-85090000D03*
%TO.P,SW6,14*%
%TO.N,Net-(R36-Pad2)*%
X83855000Y-82550000D03*
%TO.P,SW6,15*%
%TO.N,Net-(R35-Pad2)*%
X83855000Y-80010000D03*
%TO.P,SW6,16*%
%TO.N,Net-(R34-Pad2)*%
X83855000Y-77470000D03*
%TO.P,SW6,17*%
%TO.N,Net-(R33-Pad2)*%
X83855000Y-74930000D03*
%TO.P,SW6,18*%
%TO.N,Net-(R32-Pad2)*%
X83855000Y-72390000D03*
%TO.P,SW6,19*%
%TO.N,Net-(R31-Pad2)*%
X83855000Y-69850000D03*
%TO.P,SW6,20*%
%TO.N,Net-(R30-Pad2)*%
X83855000Y-67310000D03*
%TO.P,SW6,21*%
%TO.N,Net-(R29-Pad2)*%
X83855000Y-64770000D03*
%TO.P,SW6,22*%
%TO.N,Net-(R28-Pad2)*%
X83855000Y-62230000D03*
%TO.P,SW6,23*%
%TO.N,Net-(R27-Pad2)*%
X83855000Y-59690000D03*
%TO.P,SW6,24*%
%TO.N,Net-(JP1-B)*%
X83855000Y-57150000D03*
%TD*%
D12*
%TO.P,SW2,1*%
%TO.N,Net-(J6-Pin_1)*%
X99415000Y-57030000D03*
D10*
%TO.P,SW2,2*%
X99415000Y-59570000D03*
%TO.P,SW2,3*%
X99415000Y-62110000D03*
%TO.P,SW2,4*%
X99415000Y-64650000D03*
%TO.P,SW2,5*%
X99415000Y-67190000D03*
%TO.P,SW2,6*%
X99415000Y-69730000D03*
%TO.P,SW2,7*%
X99415000Y-72270000D03*
%TO.P,SW2,8*%
X99415000Y-74810000D03*
%TO.P,SW2,9*%
X99415000Y-77350000D03*
%TO.P,SW2,10*%
X99415000Y-79890000D03*
%TO.P,SW2,11*%
X99415000Y-82430000D03*
%TO.P,SW2,12*%
X99415000Y-84970000D03*
%TO.P,SW2,13*%
%TO.N,Net-(C12-Pad1)*%
X107035000Y-84970000D03*
%TO.P,SW2,14*%
%TO.N,Net-(C11-Pad1)*%
X107035000Y-82430000D03*
%TO.P,SW2,15*%
%TO.N,Net-(C10-Pad1)*%
X107035000Y-79890000D03*
%TO.P,SW2,16*%
%TO.N,Net-(C9-Pad1)*%
X107035000Y-77350000D03*
%TO.P,SW2,17*%
%TO.N,Net-(C8-Pad1)*%
X107035000Y-74810000D03*
%TO.P,SW2,18*%
%TO.N,Net-(C7-Pad1)*%
X107035000Y-72270000D03*
%TO.P,SW2,19*%
%TO.N,Net-(C6-Pad1)*%
X107035000Y-69730000D03*
%TO.P,SW2,20*%
%TO.N,Net-(C5-Pad1)*%
X107035000Y-67190000D03*
%TO.P,SW2,21*%
%TO.N,Net-(C4-Pad1)*%
X107035000Y-64650000D03*
%TO.P,SW2,22*%
%TO.N,Net-(C3-Pad1)*%
X107035000Y-62110000D03*
%TO.P,SW2,23*%
%TO.N,Net-(C2-Pad1)*%
X107035000Y-59570000D03*
%TO.P,SW2,24*%
%TO.N,Net-(C1-Pad1)*%
X107035000Y-57030000D03*
%TD*%
D14*
%TO.P,J15,1,Pin_1_1*%
%TO.N,Net-(J15-Pin_1)*%
X163147500Y-108562500D03*
D13*
%TO.P,J15,2,Pin_2_2*%
%TO.N,Net-(J15-Pin_2)*%
X168147500Y-108562500D03*
%TD*%
M02*
