%TF.GenerationSoftware,KiCad,Pcbnew,10.0.0*%
%TF.CreationDate,2026-05-06T19:26:16-04:00*%
%TF.ProjectId,RC-Substitution-Box,52432d53-7562-4737-9469-747574696f6e,rev?*%
%TF.SameCoordinates,Original*%
%TF.FileFunction,Copper,L1,Top*%
%TF.FilePolarity,Positive*%
%FSLAX46Y46*%
G04 Gerber Fmt 4.6, Leading zero omitted, Abs format (unit mm)*
G04 Created by KiCad (PCBNEW 10.0.0) date 2026-05-06 19:26:16*
%MOMM*%
%LPD*%
G01*
G04 APERTURE LIST*
G04 Aperture macros list*
%AMRoundRect*
0 Rectangle with rounded corners*
0 $1 Rounding radius*
0 $2 $3 $4 $5 $6 $7 $8 $9 X,Y pos of 4 corners*
0 Add a 4 corners polygon primitive as box body*
4,1,4,$2,$3,$4,$5,$6,$7,$8,$9,$2,$3,0*
0 Add four circle primitives for the rounded corners*
1,1,$1+$1,$2,$3*
1,1,$1+$1,$4,$5*
1,1,$1+$1,$6,$7*
1,1,$1+$1,$8,$9*
0 Add four rect primitives between the rounded corners*
20,1,$1+$1,$2,$3,$4,$5,0*
20,1,$1+$1,$4,$5,$6,$7,0*
20,1,$1+$1,$6,$7,$8,$9,0*
20,1,$1+$1,$8,$9,$2,$3,0*%
G04 Aperture macros list end*
%TA.AperFunction,ComponentPad*%
%ADD10C,1.600000*%
%TD*%
%TA.AperFunction,ComponentPad*%
%ADD11C,6.400000*%
%TD*%
%TA.AperFunction,ComponentPad*%
%ADD12RoundRect,0.250000X-0.550000X-0.550000X0.550000X-0.550000X0.550000X0.550000X-0.550000X0.550000X0*%
%TD*%
%TA.AperFunction,ComponentPad*%
%ADD13C,2.600000*%
%TD*%
%TA.AperFunction,ComponentPad*%
%ADD14RoundRect,0.250000X-1.050000X-1.050000X1.050000X-1.050000X1.050000X1.050000X-1.050000X1.050000X0*%
%TD*%
%TA.AperFunction,SMDPad,CuDef*%
%ADD15R,1.500000X1.000000*%
%TD*%
%TA.AperFunction,SMDPad,CuDef*%
%ADD16RoundRect,0.200000X-0.200000X-0.275000X0.200000X-0.275000X0.200000X0.275000X-0.200000X0.275000X0*%
%TD*%
%TA.AperFunction,SMDPad,CuDef*%
%ADD17RoundRect,0.200000X-0.275000X0.200000X-0.275000X-0.200000X0.275000X-0.200000X0.275000X0.200000X0*%
%TD*%
%TA.AperFunction,SMDPad,CuDef*%
%ADD18RoundRect,0.225000X-0.225000X-0.250000X0.225000X-0.250000X0.225000X0.250000X-0.225000X0.250000X0*%
%TD*%
%TA.AperFunction,SMDPad,CuDef*%
%ADD19RoundRect,0.135000X-0.135000X-0.185000X0.135000X-0.185000X0.135000X0.185000X-0.135000X0.185000X0*%
%TD*%
%TA.AperFunction,SMDPad,CuDef*%
%ADD20RoundRect,0.140000X-0.140000X-0.170000X0.140000X-0.170000X0.140000X0.170000X-0.140000X0.170000X0*%
%TD*%
%TA.AperFunction,Conductor*%
%ADD21C,0.200000*%
%TD*%
%TA.AperFunction,Conductor*%
%ADD22C,0.400000*%
%TD*%
G04 APERTURE END LIST*
D10*
%TO.P,R22,1*%
%TO.N,Net-(JP1-B)*%
X80000000Y-98540000D03*
%TO.P,R22,2*%
%TO.N,Net-(J14-Pin_2)*%
X77460000Y-96000000D03*
%TO.P,R22,3*%
%TO.N,unconnected-(R22-Pad3)*%
X80000000Y-93460000D03*
%TD*%
%TO.P,R42,2*%
%TO.N,Net-(R42-Pad2)*%
X174400000Y-69200000D03*
%TO.P,R42,1*%
%TO.N,Net-(R41-Pad2)*%
X174400000Y-61580000D03*
%TD*%
%TO.P,R44,2*%
%TO.N,Net-(R44-Pad2)*%
X181400000Y-69220000D03*
%TO.P,R44,1*%
%TO.N,Net-(R43-Pad2)*%
X181400000Y-61600000D03*
%TD*%
%TO.P,R43,2*%
%TO.N,Net-(R43-Pad2)*%
X177800000Y-61590000D03*
%TO.P,R43,1*%
%TO.N,Net-(R42-Pad2)*%
X177800000Y-69210000D03*
%TD*%
D11*
%TO.P,H1,1*%
%TO.N,N/C*%
X68500000Y-46500000D03*
%TD*%
%TO.P,H2,1*%
%TO.N,N/C*%
X68500000Y-113000000D03*
%TD*%
%TO.P,H3,1*%
%TO.N,N/C*%
X205000000Y-46500000D03*
%TD*%
%TO.P,H4,1*%
%TO.N,N/C*%
X205000000Y-113000000D03*
%TD*%
D10*
%TO.P,R39,1*%
%TO.N,Net-(J15-Pin_2)*%
X174300000Y-50800000D03*
%TO.P,R39,2*%
%TO.N,Net-(R39-Pad2)*%
X174300000Y-58420000D03*
%TD*%
%TO.P,R50,1*%
%TO.N,Net-(R49-Pad2)*%
X181400000Y-91600000D03*
%TO.P,R50,2*%
%TO.N,Net-(J15-Pin_1)*%
X181400000Y-83980000D03*
%TD*%
D12*
%TO.P,SW5,1*%
%TO.N,Net-(R39-Pad2)*%
X161880000Y-56910000D03*
D10*
%TO.P,SW5,2*%
%TO.N,Net-(R40-Pad2)*%
X161880000Y-59450000D03*
%TO.P,SW5,3*%
%TO.N,Net-(R41-Pad2)*%
X161880000Y-61990000D03*
%TO.P,SW5,4*%
%TO.N,Net-(R42-Pad2)*%
X161880000Y-64530000D03*
%TO.P,SW5,5*%
%TO.N,Net-(R43-Pad2)*%
X161880000Y-67070000D03*
%TO.P,SW5,6*%
%TO.N,Net-(R44-Pad2)*%
X161880000Y-69610000D03*
%TO.P,SW5,7*%
%TO.N,Net-(R45-Pad2)*%
X161880000Y-72150000D03*
%TO.P,SW5,8*%
%TO.N,Net-(R46-Pad2)*%
X161880000Y-74690000D03*
%TO.P,SW5,9*%
%TO.N,Net-(R47-Pad2)*%
X161880000Y-77230000D03*
%TO.P,SW5,10*%
%TO.N,Net-(R48-Pad2)*%
X161880000Y-79770000D03*
%TO.P,SW5,11*%
%TO.N,Net-(R49-Pad2)*%
X161880000Y-82310000D03*
%TO.P,SW5,12*%
%TO.N,Net-(J15-Pin_1)*%
X161880000Y-84850000D03*
%TO.P,SW5,13*%
%TO.N,Net-(R49-Pad2)*%
X169500000Y-84850000D03*
%TO.P,SW5,14*%
%TO.N,Net-(R48-Pad2)*%
X169500000Y-82310000D03*
%TO.P,SW5,15*%
%TO.N,Net-(R47-Pad2)*%
X169500000Y-79770000D03*
%TO.P,SW5,16*%
%TO.N,Net-(R46-Pad2)*%
X169500000Y-77230000D03*
%TO.P,SW5,17*%
%TO.N,Net-(R45-Pad2)*%
X169500000Y-74690000D03*
%TO.P,SW5,18*%
%TO.N,Net-(R44-Pad2)*%
X169500000Y-72150000D03*
%TO.P,SW5,19*%
%TO.N,Net-(R43-Pad2)*%
X169500000Y-69610000D03*
%TO.P,SW5,20*%
%TO.N,Net-(R42-Pad2)*%
X169500000Y-67070000D03*
%TO.P,SW5,21*%
%TO.N,Net-(R41-Pad2)*%
X169500000Y-64530000D03*
%TO.P,SW5,22*%
%TO.N,Net-(R40-Pad2)*%
X169500000Y-61990000D03*
%TO.P,SW5,23*%
%TO.N,Net-(R39-Pad2)*%
X169500000Y-59450000D03*
%TO.P,SW5,24*%
%TO.N,Net-(J15-Pin_2)*%
X169500000Y-56910000D03*
%TD*%
D13*
%TO.P,J5,2,Pin_2_2*%
%TO.N,Net-(J5-Pin_2)*%
X149090000Y-108562500D03*
D14*
%TO.P,J5,1,Pin_1_1*%
%TO.N,Net-(J5-Pin_1)*%
X144090000Y-108562500D03*
%TD*%
D13*
%TO.P,J14,2,Pin_2_2*%
%TO.N,Net-(J14-Pin_2)*%
X82502500Y-108562500D03*
D14*
%TO.P,J14,1,Pin_1_1*%
%TO.N,Net-(J14-Pin_1)*%
X77502500Y-108562500D03*
%TD*%
D13*
%TO.P,J6,2,Pin_2_2*%
%TO.N,Net-(J6-Pin_2)*%
X105682500Y-108562500D03*
D14*
%TO.P,J6,1,Pin_1_1*%
%TO.N,Net-(J6-Pin_1)*%
X100682500Y-108562500D03*
%TD*%
D13*
%TO.P,J7,2,Pin_2_2*%
%TO.N,Net-(J7-Pin_2)*%
X196147500Y-108562500D03*
D14*
%TO.P,J7,1,Pin_1_1*%
%TO.N,Net-(J7-Pin_1)*%
X191147500Y-108562500D03*
%TD*%
D13*
%TO.P,J13,2,Pin_2_2*%
%TO.N,Net-(J13-Pin_2)*%
X128917500Y-108562500D03*
D14*
%TO.P,J13,1,Pin_1_1*%
%TO.N,Net-(J13-Pin_1)*%
X123917500Y-108562500D03*
%TD*%
D10*
%TO.P,SW3,24*%
%TO.N,Net-(J13-Pin_2)*%
X130270000Y-56950000D03*
%TO.P,SW3,23*%
%TO.N,Net-(R14-Pad2)*%
X130270000Y-59490000D03*
%TO.P,SW3,22*%
%TO.N,Net-(R15-Pad2)*%
X130270000Y-62030000D03*
%TO.P,SW3,21*%
%TO.N,Net-(R16-Pad2)*%
X130270000Y-64570000D03*
%TO.P,SW3,20*%
%TO.N,Net-(R17-Pad2)*%
X130270000Y-67110000D03*
%TO.P,SW3,19*%
%TO.N,Net-(R18-Pad2)*%
X130270000Y-69650000D03*
%TO.P,SW3,18*%
%TO.N,Net-(R19-Pad2)*%
X130270000Y-72190000D03*
%TO.P,SW3,17*%
%TO.N,Net-(R20-Pad2)*%
X130270000Y-74730000D03*
%TO.P,SW3,16*%
%TO.N,Net-(R21-Pad2)*%
X130270000Y-77270000D03*
%TO.P,SW3,15*%
%TO.N,Net-(R23-Pad2)*%
X130270000Y-79810000D03*
%TO.P,SW3,14*%
%TO.N,Net-(R24-Pad2)*%
X130270000Y-82350000D03*
%TO.P,SW3,13*%
%TO.N,Net-(R25-Pad2)*%
X130270000Y-84890000D03*
%TO.P,SW3,12*%
%TO.N,Net-(J13-Pin_1)*%
X122650000Y-84890000D03*
%TO.P,SW3,11*%
%TO.N,Net-(R25-Pad2)*%
X122650000Y-82350000D03*
%TO.P,SW3,10*%
%TO.N,Net-(R24-Pad2)*%
X122650000Y-79810000D03*
%TO.P,SW3,9*%
%TO.N,Net-(R23-Pad2)*%
X122650000Y-77270000D03*
%TO.P,SW3,8*%
%TO.N,Net-(R21-Pad2)*%
X122650000Y-74730000D03*
%TO.P,SW3,7*%
%TO.N,Net-(R20-Pad2)*%
X122650000Y-72190000D03*
%TO.P,SW3,6*%
%TO.N,Net-(R19-Pad2)*%
X122650000Y-69650000D03*
%TO.P,SW3,5*%
%TO.N,Net-(R18-Pad2)*%
X122650000Y-67110000D03*
%TO.P,SW3,4*%
%TO.N,Net-(R17-Pad2)*%
X122650000Y-64570000D03*
%TO.P,SW3,3*%
%TO.N,Net-(R16-Pad2)*%
X122650000Y-62030000D03*
%TO.P,SW3,2*%
%TO.N,Net-(R15-Pad2)*%
X122650000Y-59490000D03*
D12*
%TO.P,SW3,1*%
%TO.N,Net-(R14-Pad2)*%
X122650000Y-56950000D03*
%TD*%
D15*
%TO.P,JP1,1,A_1*%
%TO.N,Net-(J14-Pin_2)*%
X87000000Y-95350000D03*
%TO.P,JP1,2,B_2*%
%TO.N,Net-(JP1-B)*%
X87000000Y-96650000D03*
%TD*%
D10*
%TO.P,C25,1*%
%TO.N,Net-(C25-Pad1)*%
X202000000Y-52500000D03*
%TO.P,C25,2*%
%TO.N,Net-(J7-Pin_2)*%
X207000000Y-52500000D03*
%TD*%
%TO.P,C26,1*%
%TO.N,Net-(C26-Pad1)*%
X202000000Y-56500000D03*
%TO.P,C26,2*%
%TO.N,Net-(J7-Pin_2)*%
X207000000Y-56500000D03*
%TD*%
%TO.P,C28,1*%
%TO.N,Net-(C28-Pad1)*%
X202000000Y-64500000D03*
%TO.P,C28,2*%
%TO.N,Net-(J7-Pin_2)*%
X207000000Y-64500000D03*
%TD*%
%TO.P,C27,2*%
%TO.N,Net-(J7-Pin_2)*%
X207000000Y-60500000D03*
%TO.P,C27,1*%
%TO.N,Net-(C27-Pad1)*%
X202000000Y-60500000D03*
%TD*%
%TO.P,C30,2*%
%TO.N,Net-(J7-Pin_2)*%
X207000000Y-72500000D03*
%TO.P,C30,1*%
%TO.N,Net-(C30-Pad1)*%
X202000000Y-72500000D03*
%TD*%
%TO.P,C31,2*%
%TO.N,Net-(J7-Pin_2)*%
X207000000Y-76500000D03*
%TO.P,C31,1*%
%TO.N,Net-(C31-Pad1)*%
X202000000Y-76500000D03*
%TD*%
%TO.P,C29,2*%
%TO.N,Net-(J7-Pin_2)*%
X207000000Y-68500000D03*
%TO.P,C29,1*%
%TO.N,Net-(C29-Pad1)*%
X202000000Y-68500000D03*
%TD*%
%TO.P,C32,2*%
%TO.N,Net-(J7-Pin_2)*%
X207000000Y-80500000D03*
%TO.P,C32,1*%
%TO.N,Net-(C32-Pad1)*%
X202000000Y-80500000D03*
%TD*%
%TO.P,C36,2*%
%TO.N,Net-(J7-Pin_2)*%
X207000000Y-96500000D03*
%TO.P,C36,1*%
%TO.N,Net-(C36-Pad1)*%
X202000000Y-96500000D03*
%TD*%
%TO.P,C35,2*%
%TO.N,Net-(J7-Pin_2)*%
X207000000Y-92500000D03*
%TO.P,C35,1*%
%TO.N,Net-(C35-Pad1)*%
X202000000Y-92500000D03*
%TD*%
%TO.P,C33,2*%
%TO.N,Net-(J7-Pin_2)*%
X207000000Y-84500000D03*
%TO.P,C33,1*%
%TO.N,Net-(C33-Pad1)*%
X202000000Y-84500000D03*
%TD*%
%TO.P,C34,2*%
%TO.N,Net-(J7-Pin_2)*%
X207000000Y-88500000D03*
%TO.P,C34,1*%
%TO.N,Net-(C34-Pad1)*%
X202000000Y-88500000D03*
%TD*%
D12*
%TO.P,SW7,1*%
%TO.N,Net-(J7-Pin_1)*%
X189880000Y-56960000D03*
D10*
%TO.P,SW7,2*%
X189880000Y-59500000D03*
%TO.P,SW7,3*%
X189880000Y-62040000D03*
%TO.P,SW7,4*%
X189880000Y-64580000D03*
%TO.P,SW7,5*%
X189880000Y-67120000D03*
%TO.P,SW7,6*%
X189880000Y-69660000D03*
%TO.P,SW7,7*%
X189880000Y-72200000D03*
%TO.P,SW7,8*%
X189880000Y-74740000D03*
%TO.P,SW7,9*%
X189880000Y-77280000D03*
%TO.P,SW7,10*%
X189880000Y-79820000D03*
%TO.P,SW7,11*%
X189880000Y-82360000D03*
%TO.P,SW7,12*%
X189880000Y-84900000D03*
%TO.P,SW7,13*%
%TO.N,Net-(C36-Pad1)*%
X197500000Y-84900000D03*
%TO.P,SW7,14*%
%TO.N,Net-(C35-Pad1)*%
X197500000Y-82360000D03*
%TO.P,SW7,15*%
%TO.N,Net-(C34-Pad1)*%
X197500000Y-79820000D03*
%TO.P,SW7,16*%
%TO.N,Net-(C33-Pad1)*%
X197500000Y-77280000D03*
%TO.P,SW7,17*%
%TO.N,Net-(C32-Pad1)*%
X197500000Y-74740000D03*
%TO.P,SW7,18*%
%TO.N,Net-(C31-Pad1)*%
X197500000Y-72200000D03*
%TO.P,SW7,19*%
%TO.N,Net-(C30-Pad1)*%
X197500000Y-69660000D03*
%TO.P,SW7,20*%
%TO.N,Net-(C29-Pad1)*%
X197500000Y-67120000D03*
%TO.P,SW7,21*%
%TO.N,Net-(C28-Pad1)*%
X197500000Y-64580000D03*
%TO.P,SW7,22*%
%TO.N,Net-(C27-Pad1)*%
X197500000Y-62040000D03*
%TO.P,SW7,23*%
%TO.N,Net-(C26-Pad1)*%
X197500000Y-59500000D03*
%TO.P,SW7,24*%
%TO.N,Net-(C25-Pad1)*%
X197500000Y-56960000D03*
%TD*%
D12*
%TO.P,SW4,1*%
%TO.N,Net-(J5-Pin_1)*%
X142822500Y-56910000D03*
D10*
%TO.P,SW4,2*%
X142822500Y-59450000D03*
%TO.P,SW4,3*%
X142822500Y-61990000D03*
%TO.P,SW4,4*%
X142822500Y-64530000D03*
%TO.P,SW4,5*%
X142822500Y-67070000D03*
%TO.P,SW4,6*%
X142822500Y-69610000D03*
%TO.P,SW4,7*%
X142822500Y-72150000D03*
%TO.P,SW4,8*%
X142822500Y-74690000D03*
%TO.P,SW4,9*%
X142822500Y-77230000D03*
%TO.P,SW4,10*%
X142822500Y-79770000D03*
%TO.P,SW4,11*%
X142822500Y-82310000D03*
%TO.P,SW4,12*%
X142822500Y-84850000D03*
%TO.P,SW4,13*%
%TO.N,Net-(C24-Pad1)*%
X150442500Y-84850000D03*
%TO.P,SW4,14*%
%TO.N,Net-(C23-Pad1)*%
X150442500Y-82310000D03*
%TO.P,SW4,15*%
%TO.N,Net-(C22-Pad1)*%
X150442500Y-79770000D03*
%TO.P,SW4,16*%
%TO.N,Net-(C21-Pad1)*%
X150442500Y-77230000D03*
%TO.P,SW4,17*%
%TO.N,Net-(C20-Pad1)*%
X150442500Y-74690000D03*
%TO.P,SW4,18*%
%TO.N,Net-(C19-Pad1)*%
X150442500Y-72150000D03*
%TO.P,SW4,19*%
%TO.N,Net-(C18-Pad1)*%
X150442500Y-69610000D03*
%TO.P,SW4,20*%
%TO.N,Net-(C17-Pad1)*%
X150442500Y-67070000D03*
%TO.P,SW4,21*%
%TO.N,Net-(C16-Pad1)*%
X150442500Y-64530000D03*
%TO.P,SW4,22*%
%TO.N,Net-(C15-Pad1)*%
X150442500Y-61990000D03*
%TO.P,SW4,23*%
%TO.N,Net-(C14-Pad1)*%
X150442500Y-59450000D03*
%TO.P,SW4,24*%
%TO.N,Net-(C13-Pad1)*%
X150442500Y-56910000D03*
%TD*%
%TO.P,R49,1*%
%TO.N,Net-(R48-Pad2)*%
X178000000Y-91620000D03*
%TO.P,R49,2*%
%TO.N,Net-(R49-Pad2)*%
X178000000Y-84000000D03*
%TD*%
%TO.P,R48,1*%
%TO.N,Net-(R47-Pad2)*%
X174500000Y-84000000D03*
%TO.P,R48,2*%
%TO.N,Net-(R48-Pad2)*%
X174500000Y-91620000D03*
%TD*%
%TO.P,R47,1*%
%TO.N,Net-(R46-Pad2)*%
X181400000Y-72780000D03*
%TO.P,R47,2*%
%TO.N,Net-(R47-Pad2)*%
X181400000Y-80400000D03*
%TD*%
%TO.P,R46,1*%
%TO.N,Net-(R45-Pad2)*%
X177900000Y-80400000D03*
%TO.P,R46,2*%
%TO.N,Net-(R46-Pad2)*%
X177900000Y-72780000D03*
%TD*%
%TO.P,R45,1*%
%TO.N,Net-(R44-Pad2)*%
X174400000Y-72780000D03*
%TO.P,R45,2*%
%TO.N,Net-(R45-Pad2)*%
X174400000Y-80400000D03*
%TD*%
%TO.P,R41,1*%
%TO.N,Net-(R40-Pad2)*%
X181400000Y-50790000D03*
%TO.P,R41,2*%
%TO.N,Net-(R41-Pad2)*%
X181400000Y-58410000D03*
%TD*%
%TO.P,R40,1*%
%TO.N,Net-(R39-Pad2)*%
X177900000Y-50790000D03*
%TO.P,R40,2*%
%TO.N,Net-(R40-Pad2)*%
X177900000Y-58410000D03*
%TD*%
D16*
%TO.P,R31,1*%
%TO.N,Net-(R30-Pad2)*%
X86780000Y-68127000D03*
%TO.P,R31,2*%
%TO.N,Net-(R31-Pad2)*%
X88430000Y-68127000D03*
%TD*%
%TO.P,R37,1*%
%TO.N,Net-(R36-Pad2)*%
X86780000Y-81741000D03*
%TO.P,R37,2*%
%TO.N,Net-(R37-Pad2)*%
X88430000Y-81741000D03*
%TD*%
D17*
%TO.P,R27,1*%
%TO.N,Net-(JP1-B)*%
X86855000Y-57685000D03*
%TO.P,R27,2*%
%TO.N,Net-(R27-Pad2)*%
X86855000Y-59335000D03*
%TD*%
D18*
%TO.P,C2,1*%
%TO.N,Net-(C2-Pad1)*%
X110182500Y-59703636D03*
%TO.P,C2,2*%
%TO.N,Net-(J6-Pin_2)*%
X111732500Y-59703636D03*
%TD*%
D19*
%TO.P,R25,1*%
%TO.N,Net-(R24-Pad2)*%
X132750000Y-81034545D03*
%TO.P,R25,2*%
%TO.N,Net-(R25-Pad2)*%
X133770000Y-81034545D03*
%TD*%
D20*
%TO.P,C18,1*%
%TO.N,Net-(C18-Pad1)*%
X152822500Y-68633636D03*
%TO.P,C18,2*%
%TO.N,Net-(J5-Pin_2)*%
X153782500Y-68633636D03*
%TD*%
D18*
%TO.P,C11,1*%
%TO.N,Net-(C11-Pad1)*%
X110182500Y-82686364D03*
%TO.P,C11,2*%
%TO.N,Net-(J6-Pin_2)*%
X111732500Y-82686364D03*
%TD*%
%TO.P,C1,1*%
%TO.N,Net-(C1-Pad1)*%
X110182500Y-57150000D03*
%TO.P,C1,2*%
%TO.N,Net-(J6-Pin_2)*%
X111732500Y-57150000D03*
%TD*%
%TO.P,C12,1*%
%TO.N,Net-(C12-Pad1)*%
X110182500Y-85240000D03*
%TO.P,C12,2*%
%TO.N,Net-(J6-Pin_2)*%
X111732500Y-85240000D03*
%TD*%
D20*
%TO.P,C22,1*%
%TO.N,Net-(C22-Pad1)*%
X152822500Y-78066363D03*
%TO.P,C22,2*%
%TO.N,Net-(J5-Pin_2)*%
X153782500Y-78066363D03*
%TD*%
%TO.P,C15,1*%
%TO.N,Net-(C15-Pad1)*%
X152822500Y-61559091D03*
%TO.P,C15,2*%
%TO.N,Net-(J5-Pin_2)*%
X153782500Y-61559091D03*
%TD*%
D19*
%TO.P,R15,1*%
%TO.N,Net-(R14-Pad2)*%
X132750000Y-60195455D03*
%TO.P,R15,2*%
%TO.N,Net-(R15-Pad2)*%
X133770000Y-60195455D03*
%TD*%
D20*
%TO.P,C23,1*%
%TO.N,Net-(C23-Pad1)*%
X152822500Y-80424545D03*
%TO.P,C23,2*%
%TO.N,Net-(J5-Pin_2)*%
X153782500Y-80424545D03*
%TD*%
%TO.P,C20,1*%
%TO.N,Net-(C20-Pad1)*%
X152822500Y-73350000D03*
%TO.P,C20,2*%
%TO.N,Net-(J5-Pin_2)*%
X153782500Y-73350000D03*
%TD*%
D18*
%TO.P,C9,1*%
%TO.N,Net-(C9-Pad1)*%
X110182500Y-77579091D03*
%TO.P,C9,2*%
%TO.N,Net-(J6-Pin_2)*%
X111732500Y-77579091D03*
%TD*%
D16*
%TO.P,R34,1*%
%TO.N,Net-(R33-Pad2)*%
X86780000Y-74934000D03*
%TO.P,R34,2*%
%TO.N,Net-(R34-Pad2)*%
X88430000Y-74934000D03*
%TD*%
%TO.P,R35,1*%
%TO.N,Net-(R34-Pad2)*%
X86780000Y-77203000D03*
%TO.P,R35,2*%
%TO.N,Net-(R35-Pad2)*%
X88430000Y-77203000D03*
%TD*%
D18*
%TO.P,C10,1*%
%TO.N,Net-(C10-Pad1)*%
X110182500Y-80132727D03*
%TO.P,C10,2*%
%TO.N,Net-(J6-Pin_2)*%
X111732500Y-80132727D03*
%TD*%
D19*
%TO.P,R16,1*%
%TO.N,Net-(R15-Pad2)*%
X132750000Y-62510909D03*
%TO.P,R16,2*%
%TO.N,Net-(R16-Pad2)*%
X133770000Y-62510909D03*
%TD*%
D20*
%TO.P,C13,1*%
%TO.N,Net-(C13-Pad1)*%
X152822500Y-56842727D03*
%TO.P,C13,2*%
%TO.N,Net-(J5-Pin_2)*%
X153782500Y-56842727D03*
%TD*%
D16*
%TO.P,R36,1*%
%TO.N,Net-(R35-Pad2)*%
X86780000Y-79472000D03*
%TO.P,R36,2*%
%TO.N,Net-(R36-Pad2)*%
X88430000Y-79472000D03*
%TD*%
D18*
%TO.P,C8,1*%
%TO.N,Net-(C8-Pad1)*%
X110182500Y-75025455D03*
%TO.P,C8,2*%
%TO.N,Net-(J6-Pin_2)*%
X111732500Y-75025455D03*
%TD*%
D20*
%TO.P,C14,1*%
%TO.N,Net-(C14-Pad1)*%
X152822500Y-59200909D03*
%TO.P,C14,2*%
%TO.N,Net-(J5-Pin_2)*%
X153782500Y-59200909D03*
%TD*%
%TO.P,C19,1*%
%TO.N,Net-(C19-Pad1)*%
X152822500Y-70991818D03*
%TO.P,C19,2*%
%TO.N,Net-(J5-Pin_2)*%
X153782500Y-70991818D03*
%TD*%
D16*
%TO.P,R30,1*%
%TO.N,Net-(R29-Pad2)*%
X86780000Y-65858000D03*
%TO.P,R30,2*%
%TO.N,Net-(R30-Pad2)*%
X88430000Y-65858000D03*
%TD*%
D18*
%TO.P,C6,1*%
%TO.N,Net-(C6-Pad1)*%
X110182500Y-69918182D03*
%TO.P,C6,2*%
%TO.N,Net-(J6-Pin_2)*%
X111732500Y-69918182D03*
%TD*%
D19*
%TO.P,R24,1*%
%TO.N,Net-(R23-Pad2)*%
X132750000Y-78719091D03*
%TO.P,R24,2*%
%TO.N,Net-(R24-Pad2)*%
X133770000Y-78719091D03*
%TD*%
%TO.P,R21,1*%
%TO.N,Net-(R20-Pad2)*%
X132750000Y-74088182D03*
%TO.P,R21,2*%
%TO.N,Net-(R21-Pad2)*%
X133770000Y-74088182D03*
%TD*%
D20*
%TO.P,C24,1*%
%TO.N,Net-(C24-Pad1)*%
X152822500Y-82782727D03*
%TO.P,C24,2*%
%TO.N,Net-(J5-Pin_2)*%
X153782500Y-82782727D03*
%TD*%
D16*
%TO.P,R33,1*%
%TO.N,Net-(R32-Pad2)*%
X86780000Y-72665000D03*
%TO.P,R33,2*%
%TO.N,Net-(R33-Pad2)*%
X88430000Y-72665000D03*
%TD*%
D12*
%TO.P,SW6,1*%
%TO.N,Net-(R27-Pad2)*%
X76235000Y-57150000D03*
D10*
%TO.P,SW6,2*%
%TO.N,Net-(R28-Pad2)*%
X76235000Y-59690000D03*
%TO.P,SW6,3*%
%TO.N,Net-(R29-Pad2)*%
X76235000Y-62230000D03*
%TO.P,SW6,4*%
%TO.N,Net-(R30-Pad2)*%
X76235000Y-64770000D03*
%TO.P,SW6,5*%
%TO.N,Net-(R31-Pad2)*%
X76235000Y-67310000D03*
%TO.P,SW6,6*%
%TO.N,Net-(R32-Pad2)*%
X76235000Y-69850000D03*
%TO.P,SW6,7*%
%TO.N,Net-(R33-Pad2)*%
X76235000Y-72390000D03*
%TO.P,SW6,8*%
%TO.N,Net-(R34-Pad2)*%
X76235000Y-74930000D03*
%TO.P,SW6,9*%
%TO.N,Net-(R35-Pad2)*%
X76235000Y-77470000D03*
%TO.P,SW6,10*%
%TO.N,Net-(R36-Pad2)*%
X76235000Y-80010000D03*
%TO.P,SW6,11*%
%TO.N,Net-(R37-Pad2)*%
X76235000Y-82550000D03*
%TO.P,SW6,12*%
%TO.N,Net-(J14-Pin_1)*%
X76235000Y-85090000D03*
%TO.P,SW6,13*%
%TO.N,Net-(R37-Pad2)*%
X83855000Y-85090000D03*
%TO.P,SW6,14*%
%TO.N,Net-(R36-Pad2)*%
X83855000Y-82550000D03*
%TO.P,SW6,15*%
%TO.N,Net-(R35-Pad2)*%
X83855000Y-80010000D03*
%TO.P,SW6,16*%
%TO.N,Net-(R34-Pad2)*%
X83855000Y-77470000D03*
%TO.P,SW6,17*%
%TO.N,Net-(R33-Pad2)*%
X83855000Y-74930000D03*
%TO.P,SW6,18*%
%TO.N,Net-(R32-Pad2)*%
X83855000Y-72390000D03*
%TO.P,SW6,19*%
%TO.N,Net-(R31-Pad2)*%
X83855000Y-69850000D03*
%TO.P,SW6,20*%
%TO.N,Net-(R30-Pad2)*%
X83855000Y-67310000D03*
%TO.P,SW6,21*%
%TO.N,Net-(R29-Pad2)*%
X83855000Y-64770000D03*
%TO.P,SW6,22*%
%TO.N,Net-(R28-Pad2)*%
X83855000Y-62230000D03*
%TO.P,SW6,23*%
%TO.N,Net-(R27-Pad2)*%
X83855000Y-59690000D03*
%TO.P,SW6,24*%
%TO.N,Net-(JP1-B)*%
X83855000Y-57150000D03*
%TD*%
D19*
%TO.P,R18,1*%
%TO.N,Net-(R17-Pad2)*%
X132750000Y-67141818D03*
%TO.P,R18,2*%
%TO.N,Net-(R18-Pad2)*%
X133770000Y-67141818D03*
%TD*%
D18*
%TO.P,C7,1*%
%TO.N,Net-(C7-Pad1)*%
X110182500Y-72471818D03*
%TO.P,C7,2*%
%TO.N,Net-(J6-Pin_2)*%
X111732500Y-72471818D03*
%TD*%
D19*
%TO.P,R23,1*%
%TO.N,Net-(R21-Pad2)*%
X132750000Y-76403636D03*
%TO.P,R23,2*%
%TO.N,Net-(R23-Pad2)*%
X133770000Y-76403636D03*
%TD*%
D16*
%TO.P,R28,1*%
%TO.N,Net-(R27-Pad2)*%
X86780000Y-61320000D03*
%TO.P,R28,2*%
%TO.N,Net-(R28-Pad2)*%
X88430000Y-61320000D03*
%TD*%
D20*
%TO.P,C21,1*%
%TO.N,Net-(C21-Pad1)*%
X152822500Y-75708182D03*
%TO.P,C21,2*%
%TO.N,Net-(J5-Pin_2)*%
X153782500Y-75708182D03*
%TD*%
D18*
%TO.P,C5,1*%
%TO.N,Net-(C5-Pad1)*%
X110182500Y-67364545D03*
%TO.P,C5,2*%
%TO.N,Net-(J6-Pin_2)*%
X111732500Y-67364545D03*
%TD*%
D20*
%TO.P,C16,1*%
%TO.N,Net-(C16-Pad1)*%
X152822500Y-63917272D03*
%TO.P,C16,2*%
%TO.N,Net-(J5-Pin_2)*%
X153782500Y-63917272D03*
%TD*%
D18*
%TO.P,C4,1*%
%TO.N,Net-(C4-Pad1)*%
X110182500Y-64810909D03*
%TO.P,C4,2*%
%TO.N,Net-(J6-Pin_2)*%
X111732500Y-64810909D03*
%TD*%
D19*
%TO.P,R14,1*%
%TO.N,Net-(J13-Pin_2)*%
X132750000Y-57880000D03*
%TO.P,R14,2*%
%TO.N,Net-(R14-Pad2)*%
X133770000Y-57880000D03*
%TD*%
D12*
%TO.P,SW2,1*%
%TO.N,Net-(J6-Pin_1)*%
X99415000Y-57030000D03*
D10*
%TO.P,SW2,2*%
X99415000Y-59570000D03*
%TO.P,SW2,3*%
X99415000Y-62110000D03*
%TO.P,SW2,4*%
X99415000Y-64650000D03*
%TO.P,SW2,5*%
X99415000Y-67190000D03*
%TO.P,SW2,6*%
X99415000Y-69730000D03*
%TO.P,SW2,7*%
X99415000Y-72270000D03*
%TO.P,SW2,8*%
X99415000Y-74810000D03*
%TO.P,SW2,9*%
X99415000Y-77350000D03*
%TO.P,SW2,10*%
X99415000Y-79890000D03*
%TO.P,SW2,11*%
X99415000Y-82430000D03*
%TO.P,SW2,12*%
X99415000Y-84970000D03*
%TO.P,SW2,13*%
%TO.N,Net-(C12-Pad1)*%
X107035000Y-84970000D03*
%TO.P,SW2,14*%
%TO.N,Net-(C11-Pad1)*%
X107035000Y-82430000D03*
%TO.P,SW2,15*%
%TO.N,Net-(C10-Pad1)*%
X107035000Y-79890000D03*
%TO.P,SW2,16*%
%TO.N,Net-(C9-Pad1)*%
X107035000Y-77350000D03*
%TO.P,SW2,17*%
%TO.N,Net-(C8-Pad1)*%
X107035000Y-74810000D03*
%TO.P,SW2,18*%
%TO.N,Net-(C7-Pad1)*%
X107035000Y-72270000D03*
%TO.P,SW2,19*%
%TO.N,Net-(C6-Pad1)*%
X107035000Y-69730000D03*
%TO.P,SW2,20*%
%TO.N,Net-(C5-Pad1)*%
X107035000Y-67190000D03*
%TO.P,SW2,21*%
%TO.N,Net-(C4-Pad1)*%
X107035000Y-64650000D03*
%TO.P,SW2,22*%
%TO.N,Net-(C3-Pad1)*%
X107035000Y-62110000D03*
%TO.P,SW2,23*%
%TO.N,Net-(C2-Pad1)*%
X107035000Y-59570000D03*
%TO.P,SW2,24*%
%TO.N,Net-(C1-Pad1)*%
X107035000Y-57030000D03*
%TD*%
D19*
%TO.P,R17,1*%
%TO.N,Net-(R16-Pad2)*%
X132750000Y-64826364D03*
%TO.P,R17,2*%
%TO.N,Net-(R17-Pad2)*%
X133770000Y-64826364D03*
%TD*%
D18*
%TO.P,C3,1*%
%TO.N,Net-(C3-Pad1)*%
X110182500Y-62257273D03*
%TO.P,C3,2*%
%TO.N,Net-(J6-Pin_2)*%
X111732500Y-62257273D03*
%TD*%
D16*
%TO.P,R32,1*%
%TO.N,Net-(R31-Pad2)*%
X86780000Y-70396000D03*
%TO.P,R32,2*%
%TO.N,Net-(R32-Pad2)*%
X88430000Y-70396000D03*
%TD*%
%TO.P,R29,1*%
%TO.N,Net-(R28-Pad2)*%
X86780000Y-63589000D03*
%TO.P,R29,2*%
%TO.N,Net-(R29-Pad2)*%
X88430000Y-63589000D03*
%TD*%
%TO.P,R38,1*%
%TO.N,Net-(R37-Pad2)*%
X86780000Y-84010000D03*
%TO.P,R38,2*%
%TO.N,Net-(J14-Pin_1)*%
X88430000Y-84010000D03*
%TD*%
D19*
%TO.P,R19,1*%
%TO.N,Net-(R18-Pad2)*%
X132750000Y-69457273D03*
%TO.P,R19,2*%
%TO.N,Net-(R19-Pad2)*%
X133770000Y-69457273D03*
%TD*%
D20*
%TO.P,C17,1*%
%TO.N,Net-(C17-Pad1)*%
X152822500Y-66275454D03*
%TO.P,C17,2*%
%TO.N,Net-(J5-Pin_2)*%
X153782500Y-66275454D03*
%TD*%
D19*
%TO.P,R20,1*%
%TO.N,Net-(R19-Pad2)*%
X132750000Y-71772727D03*
%TO.P,R20,2*%
%TO.N,Net-(R20-Pad2)*%
X133770000Y-71772727D03*
%TD*%
%TO.P,R26,1*%
%TO.N,Net-(R25-Pad2)*%
X132750000Y-83350000D03*
%TO.P,R26,2*%
%TO.N,Net-(J13-Pin_1)*%
X133770000Y-83350000D03*
%TD*%
D14*
%TO.P,J15,1,Pin_1_1*%
%TO.N,Net-(J15-Pin_1)*%
X163147500Y-108562500D03*
D13*
%TO.P,J15,2,Pin_2_2*%
%TO.N,Net-(J15-Pin_2)*%
X168147500Y-108562500D03*
%TD*%
%TO.N,Net-(JP1-B)*%
D21*
X83855000Y-57150000D02*
X86320000Y-57150000D01*
X86320000Y-57150000D02*
X86855000Y-57685000D01*
%TO.N,Net-(J7-Pin_2)*%
D22*
X207000000Y-96500000D02*
X207000000Y-52500000D01*
X207000000Y-97710000D02*
X207000000Y-96500000D01*
X196147500Y-108562500D02*
X207000000Y-97710000D01*
%TO.N,Net-(J15-Pin_2)*%
X185400000Y-50800000D02*
X183200000Y-48600000D01*
X176500000Y-48600000D02*
X174300000Y-50800000D01*
X183200000Y-48600000D02*
X176500000Y-48600000D01*
X185400000Y-85000000D02*
X185400000Y-50800000D01*
X185600000Y-85200000D02*
X185400000Y-85000000D01*
X185600000Y-94200000D02*
X185600000Y-85200000D01*
X171237500Y-108562500D02*
X185600000Y-94200000D01*
X168147500Y-108562500D02*
X171237500Y-108562500D01*
%TO.N,Net-(J15-Pin_1)*%
D21*
X171830000Y-94800000D02*
X163147500Y-86117500D01*
X183600000Y-92800000D02*
X181600000Y-94800000D01*
X183600000Y-85000000D02*
X183600000Y-92800000D01*
X182580000Y-83980000D02*
X183600000Y-85000000D01*
X181600000Y-94800000D02*
X171830000Y-94800000D01*
X181400000Y-83980000D02*
X182580000Y-83980000D01*
%TO.N,Net-(R49-Pad2)*%
X169500000Y-91100000D02*
X169500000Y-84850000D01*
X172600000Y-94200000D02*
X169500000Y-91100000D01*
X180400000Y-94200000D02*
X172600000Y-94200000D01*
X181400000Y-93200000D02*
X180400000Y-94200000D01*
X181400000Y-91600000D02*
X181400000Y-93200000D01*
X178000000Y-88200000D02*
X181400000Y-91600000D01*
X178000000Y-84000000D02*
X178000000Y-88200000D01*
%TO.N,Net-(R48-Pad2)*%
X174500000Y-87310000D02*
X169500000Y-82310000D01*
X174500000Y-91620000D02*
X174500000Y-87310000D01*
X178000000Y-91620000D02*
X174500000Y-91620000D01*
%TO.N,Net-(R47-Pad2)*%
X170270000Y-79770000D02*
X169500000Y-79770000D01*
X174500000Y-84000000D02*
X170270000Y-79770000D01*
X174500000Y-83900000D02*
X174500000Y-84000000D01*
X179200000Y-82600000D02*
X175800000Y-82600000D01*
X181400000Y-80400000D02*
X179200000Y-82600000D01*
X175800000Y-82600000D02*
X174500000Y-83900000D01*
%TO.N,Net-(R46-Pad2)*%
X178600000Y-81800000D02*
X174070000Y-81800000D01*
X179600000Y-80800000D02*
X178600000Y-81800000D01*
X179600000Y-76200000D02*
X179600000Y-80800000D01*
X174070000Y-81800000D02*
X169500000Y-77230000D01*
X177900000Y-74500000D02*
X179600000Y-76200000D01*
X177900000Y-72780000D02*
X177900000Y-74500000D01*
%TO.N,Net-(R45-Pad2)*%
X174400000Y-79590000D02*
X169500000Y-74690000D01*
X174400000Y-80400000D02*
X174400000Y-79590000D01*
X177900000Y-80400000D02*
X174400000Y-80400000D01*
%TO.N,Net-(R46-Pad2)*%
X181400000Y-72780000D02*
X177900000Y-72780000D01*
%TO.N,Net-(R44-Pad2)*%
X173820000Y-72200000D02*
X169550000Y-72200000D01*
X174400000Y-72780000D02*
X173820000Y-72200000D01*
X169550000Y-72200000D02*
X169500000Y-72150000D01*
X179220000Y-71400000D02*
X175780000Y-71400000D01*
X181400000Y-69220000D02*
X179220000Y-71400000D01*
X175780000Y-71400000D02*
X174400000Y-72780000D01*
%TO.N,Net-(R43-Pad2)*%
X170490000Y-70600000D02*
X169500000Y-69610000D01*
X178600000Y-70600000D02*
X170490000Y-70600000D01*
X179400000Y-69800000D02*
X178600000Y-70600000D01*
X179400000Y-65200000D02*
X179400000Y-69800000D01*
X177800000Y-63600000D02*
X179400000Y-65200000D01*
X177800000Y-61590000D02*
X177800000Y-63600000D01*
X181390000Y-61590000D02*
X181400000Y-61600000D01*
X177800000Y-61590000D02*
X181390000Y-61590000D01*
%TO.N,Net-(R42-Pad2)*%
X171630000Y-69200000D02*
X169500000Y-67070000D01*
X174400000Y-69200000D02*
X171630000Y-69200000D01*
X174410000Y-69210000D02*
X174400000Y-69200000D01*
X177800000Y-69210000D02*
X174410000Y-69210000D01*
%TO.N,Net-(R41-Pad2)*%
X175580000Y-60400000D02*
X174400000Y-61580000D01*
X179410000Y-60400000D02*
X175580000Y-60400000D01*
X181400000Y-58410000D02*
X179410000Y-60400000D01*
X172450000Y-61580000D02*
X169500000Y-64530000D01*
X174400000Y-61580000D02*
X172450000Y-61580000D01*
%TO.N,Net-(R40-Pad2)*%
X171690000Y-59800000D02*
X169500000Y-61990000D01*
X176510000Y-59800000D02*
X171690000Y-59800000D01*
X177900000Y-58410000D02*
X176510000Y-59800000D01*
%TO.N,Net-(R39-Pad2)*%
X174300000Y-58420000D02*
X170530000Y-58420000D01*
X170530000Y-58420000D02*
X169500000Y-59450000D01*
X177900000Y-54820000D02*
X174300000Y-58420000D01*
X177900000Y-50790000D02*
X177900000Y-54820000D01*
%TO.N,Net-(R40-Pad2)*%
X181400000Y-50790000D02*
X181400000Y-54910000D01*
X181400000Y-54910000D02*
X177900000Y-58410000D01*
%TO.N,Net-(J15-Pin_2)*%
D22*
X169500000Y-55600000D02*
X174300000Y-50800000D01*
X169500000Y-56910000D02*
X169500000Y-55600000D01*
%TO.N,Net-(R49-Pad2)*%
X166960000Y-82310000D02*
X169500000Y-84850000D01*
X161880000Y-82310000D02*
X166960000Y-82310000D01*
%TO.N,Net-(R48-Pad2)*%
X161880000Y-79770000D02*
X166960000Y-79770000D01*
X166960000Y-79770000D02*
X169500000Y-82310000D01*
%TO.N,Net-(R47-Pad2)*%
X166960000Y-77230000D02*
X169500000Y-79770000D01*
X161880000Y-77230000D02*
X166960000Y-77230000D01*
%TO.N,Net-(R46-Pad2)*%
X166960000Y-74690000D02*
X169500000Y-77230000D01*
X161880000Y-74690000D02*
X166960000Y-74690000D01*
%TO.N,Net-(R45-Pad2)*%
X166960000Y-72150000D02*
X169500000Y-74690000D01*
X161880000Y-72150000D02*
X166960000Y-72150000D01*
%TO.N,Net-(R44-Pad2)*%
X166960000Y-69610000D02*
X169500000Y-72150000D01*
X161880000Y-69610000D02*
X166960000Y-69610000D01*
%TO.N,Net-(R43-Pad2)*%
X166960000Y-67070000D02*
X169500000Y-69610000D01*
X161880000Y-67070000D02*
X166960000Y-67070000D01*
%TO.N,Net-(R42-Pad2)*%
X166960000Y-64530000D02*
X169500000Y-67070000D01*
X161880000Y-64530000D02*
X166960000Y-64530000D01*
%TO.N,Net-(R41-Pad2)*%
X166960000Y-61990000D02*
X169500000Y-64530000D01*
X161880000Y-61990000D02*
X166960000Y-61990000D01*
%TO.N,Net-(R40-Pad2)*%
X166960000Y-59450000D02*
X169500000Y-61990000D01*
X161880000Y-59450000D02*
X166960000Y-59450000D01*
%TO.N,Net-(R39-Pad2)*%
X166960000Y-56910000D02*
X169500000Y-59450000D01*
X161880000Y-56910000D02*
X166960000Y-56910000D01*
%TO.N,Net-(J15-Pin_1)*%
X163147500Y-86117500D02*
X161880000Y-84850000D01*
X163147500Y-108562500D02*
X163147500Y-86117500D01*
%TO.N,Net-(C33-Pad1)*%
D21*
X202000000Y-82400000D02*
X202000000Y-84500000D01*
X198600000Y-79000000D02*
X202000000Y-82400000D01*
X198600000Y-78380000D02*
X198600000Y-79000000D01*
X197500000Y-77280000D02*
X198600000Y-78380000D01*
%TO.N,Net-(C36-Pad1)*%
X197500000Y-92000000D02*
X202000000Y-96500000D01*
X197500000Y-84900000D02*
X197500000Y-92000000D01*
%TO.N,Net-(C35-Pad1)*%
X199400000Y-84260000D02*
X199400000Y-89900000D01*
X199400000Y-89900000D02*
X202000000Y-92500000D01*
X197500000Y-82360000D02*
X199400000Y-84260000D01*
%TO.N,Net-(C34-Pad1)*%
X200400000Y-86900000D02*
X202000000Y-88500000D01*
X197500000Y-79820000D02*
X200400000Y-82720000D01*
X200400000Y-82720000D02*
X200400000Y-86900000D01*
%TO.N,Net-(C32-Pad1)*%
X202000000Y-78400000D02*
X202000000Y-80500000D01*
X198340000Y-74740000D02*
X202000000Y-78400000D01*
X197500000Y-74740000D02*
X198340000Y-74740000D01*
%TO.N,Net-(C31-Pad1)*%
X202000000Y-74500000D02*
X202000000Y-76500000D01*
X199700000Y-72200000D02*
X202000000Y-74500000D01*
X197500000Y-72200000D02*
X199700000Y-72200000D01*
%TO.N,Net-(C30-Pad1)*%
X202000000Y-71500000D02*
X202000000Y-72500000D01*
X200160000Y-69660000D02*
X202000000Y-71500000D01*
X197500000Y-69660000D02*
X200160000Y-69660000D01*
%TO.N,Net-(C29-Pad1)*%
X200620000Y-67120000D02*
X202000000Y-68500000D01*
X197500000Y-67120000D02*
X200620000Y-67120000D01*
%TO.N,Net-(C28-Pad1)*%
X201920000Y-64580000D02*
X202000000Y-64500000D01*
X197500000Y-64580000D02*
X201920000Y-64580000D01*
%TO.N,Net-(C27-Pad1)*%
X199040000Y-60500000D02*
X202000000Y-60500000D01*
X197500000Y-62040000D02*
X199040000Y-60500000D01*
%TO.N,Net-(C26-Pad1)*%
X200500000Y-56500000D02*
X202000000Y-56500000D01*
X197500000Y-59500000D02*
X200500000Y-56500000D01*
%TO.N,Net-(C25-Pad1)*%
X201960000Y-52500000D02*
X202000000Y-52500000D01*
X197500000Y-56960000D02*
X201960000Y-52500000D01*
%TO.N,Net-(J7-Pin_1)*%
D22*
X189880000Y-84900000D02*
X189880000Y-56960000D01*
X191147500Y-86167500D02*
X189880000Y-84900000D01*
X191147500Y-108562500D02*
X191147500Y-86167500D01*
%TO.N,Net-(J5-Pin_2)*%
D21*
X153782500Y-82782727D02*
X153782500Y-103870000D01*
X153782500Y-103870000D02*
X149090000Y-108562500D01*
%TO.N,Net-(J5-Pin_1)*%
X144090000Y-86117500D02*
X142822500Y-84850000D01*
X144090000Y-108562500D02*
X144090000Y-86117500D01*
%TO.N,Net-(J13-Pin_2)*%
X131220000Y-56000000D02*
X130270000Y-56950000D01*
X135500000Y-57500000D02*
X134000000Y-56000000D01*
X135500000Y-101980000D02*
X135500000Y-57500000D01*
X128917500Y-108562500D02*
X135500000Y-101980000D01*
X134000000Y-56000000D02*
X131220000Y-56000000D01*
%TO.N,Net-(J13-Pin_1)*%
X122650000Y-107295000D02*
X123917500Y-108562500D01*
X122650000Y-84890000D02*
X122650000Y-107295000D01*
%TO.N,Net-(J6-Pin_2)*%
X111732500Y-102512500D02*
X105682500Y-108562500D01*
X111732500Y-85240000D02*
X111732500Y-102512500D01*
%TO.N,Net-(J6-Pin_1)*%
X100682500Y-86237500D02*
X99415000Y-84970000D01*
X100682500Y-108562500D02*
X100682500Y-86237500D01*
%TO.N,Net-(JP1-B)*%
X90685000Y-57685000D02*
X86855000Y-57685000D01*
X93000000Y-60000000D02*
X90685000Y-57685000D01*
X93000000Y-92500000D02*
X93000000Y-60000000D01*
X88850000Y-96650000D02*
X93000000Y-92500000D01*
X87000000Y-96650000D02*
X88850000Y-96650000D01*
%TO.N,Net-(J14-Pin_1)*%
X86500000Y-87000000D02*
X78145000Y-87000000D01*
X88430000Y-85070000D02*
X86500000Y-87000000D01*
X78145000Y-87000000D02*
X76235000Y-85090000D01*
X88430000Y-84010000D02*
X88430000Y-85070000D01*
%TO.N,Net-(JP1-B)*%
X85110000Y-98540000D02*
X87000000Y-96650000D01*
X80000000Y-98540000D02*
X85110000Y-98540000D01*
%TO.N,Net-(J14-Pin_2)*%
X77460000Y-96000000D02*
X78110000Y-95350000D01*
X78110000Y-95350000D02*
X87000000Y-95350000D01*
X77460000Y-100460000D02*
X77460000Y-96000000D01*
X82500000Y-105500000D02*
X77460000Y-100460000D01*
X82500000Y-108560000D02*
X82500000Y-105500000D01*
X82502500Y-108562500D02*
X82500000Y-108560000D01*
%TO.N,Net-(J14-Pin_1)*%
X76235000Y-100765000D02*
X76235000Y-85090000D01*
X77502500Y-102002500D02*
X76250000Y-100750000D01*
X76250000Y-100750000D02*
X76235000Y-100765000D01*
X77502500Y-108562500D02*
X77502500Y-102002500D01*
%TO.N,Net-(J6-Pin_2)*%
X111732500Y-57150000D02*
X111732500Y-85240000D01*
%TO.N,Net-(C1-Pad1)*%
X107035000Y-57030000D02*
X110062500Y-57030000D01*
X110062500Y-57030000D02*
X110182500Y-57150000D01*
%TO.N,Net-(C2-Pad1)*%
X110048864Y-59570000D02*
X110182500Y-59703636D01*
X107035000Y-59570000D02*
X110048864Y-59570000D01*
%TO.N,Net-(C3-Pad1)*%
X107035000Y-62110000D02*
X110035227Y-62110000D01*
X110035227Y-62110000D02*
X110182500Y-62257273D01*
%TO.N,Net-(C4-Pad1)*%
X110021591Y-64650000D02*
X110182500Y-64810909D01*
X107035000Y-64650000D02*
X110021591Y-64650000D01*
%TO.N,Net-(C5-Pad1)*%
X110007955Y-67190000D02*
X110182500Y-67364545D01*
X107035000Y-67190000D02*
X110007955Y-67190000D01*
%TO.N,Net-(C6-Pad1)*%
X109994318Y-69730000D02*
X110182500Y-69918182D01*
X107035000Y-69730000D02*
X109994318Y-69730000D01*
%TO.N,Net-(C7-Pad1)*%
X107035000Y-72270000D02*
X109980682Y-72270000D01*
X109980682Y-72270000D02*
X110182500Y-72471818D01*
%TO.N,Net-(C8-Pad1)*%
X109967045Y-74810000D02*
X110182500Y-75025455D01*
X107035000Y-74810000D02*
X109967045Y-74810000D01*
%TO.N,Net-(C9-Pad1)*%
X109953409Y-77350000D02*
X110182500Y-77579091D01*
X107035000Y-77350000D02*
X109953409Y-77350000D01*
%TO.N,Net-(C10-Pad1)*%
X107035000Y-79890000D02*
X109939773Y-79890000D01*
X109939773Y-79890000D02*
X110182500Y-80132727D01*
%TO.N,Net-(C11-Pad1)*%
X107035000Y-82430000D02*
X109926136Y-82430000D01*
X109926136Y-82430000D02*
X110182500Y-82686364D01*
%TO.N,Net-(C12-Pad1)*%
X107035000Y-84970000D02*
X109912500Y-84970000D01*
X109912500Y-84970000D02*
X110182500Y-85240000D01*
%TO.N,Net-(J5-Pin_2)*%
X153782500Y-56842727D02*
X153782500Y-82782727D01*
%TO.N,Net-(C13-Pad1)*%
X152755227Y-56910000D02*
X152822500Y-56842727D01*
X150442500Y-56910000D02*
X152755227Y-56910000D01*
%TO.N,Net-(C14-Pad1)*%
X150442500Y-59450000D02*
X152573409Y-59450000D01*
X152573409Y-59450000D02*
X152822500Y-59200909D01*
%TO.N,Net-(C15-Pad1)*%
X152391591Y-61990000D02*
X152822500Y-61559091D01*
X150442500Y-61990000D02*
X152391591Y-61990000D01*
%TO.N,Net-(C16-Pad1)*%
X152209772Y-64530000D02*
X152822500Y-63917272D01*
X150442500Y-64530000D02*
X152209772Y-64530000D01*
%TO.N,Net-(C17-Pad1)*%
X150442500Y-67070000D02*
X152027954Y-67070000D01*
X152027954Y-67070000D02*
X152822500Y-66275454D01*
%TO.N,Net-(C18-Pad1)*%
X150442500Y-69610000D02*
X151846136Y-69610000D01*
X151846136Y-69610000D02*
X152822500Y-68633636D01*
%TO.N,Net-(C19-Pad1)*%
X150442500Y-72150000D02*
X151664318Y-72150000D01*
X151664318Y-72150000D02*
X152822500Y-70991818D01*
%TO.N,Net-(C20-Pad1)*%
X150442500Y-74690000D02*
X151782500Y-73350000D01*
X151782500Y-73350000D02*
X152822500Y-73350000D01*
%TO.N,Net-(C21-Pad1)*%
X150442500Y-77230000D02*
X151964318Y-75708182D01*
X151964318Y-75708182D02*
X152822500Y-75708182D01*
%TO.N,Net-(C22-Pad1)*%
X150442500Y-79770000D02*
X152146137Y-78066363D01*
X152146137Y-78066363D02*
X152822500Y-78066363D01*
%TO.N,Net-(C23-Pad1)*%
X150442500Y-82310000D02*
X152327955Y-80424545D01*
X152327955Y-80424545D02*
X152822500Y-80424545D01*
%TO.N,Net-(C24-Pad1)*%
X152509773Y-82782727D02*
X150442500Y-84850000D01*
X152822500Y-82782727D02*
X152509773Y-82782727D01*
%TO.N,Net-(J13-Pin_2)*%
X130270000Y-56950000D02*
X131820000Y-56950000D01*
X131820000Y-56950000D02*
X132750000Y-57880000D01*
%TO.N,Net-(J5-Pin_1)*%
X142822500Y-56910000D02*
X142822500Y-84850000D01*
%TO.N,Net-(J6-Pin_1)*%
X99415000Y-57030000D02*
X99415000Y-59570000D01*
X99415000Y-59570000D02*
X99415000Y-84970000D01*
%TO.N,Net-(J13-Pin_1)*%
X125615000Y-86390000D02*
X132115000Y-86390000D01*
X132115000Y-86390000D02*
X133770000Y-84735000D01*
X122650000Y-84890000D02*
X124115000Y-84890000D01*
X133770000Y-84735000D02*
X133770000Y-83350000D01*
X124115000Y-84890000D02*
X125615000Y-86390000D01*
%TO.N,Net-(J14-Pin_1)*%
X76115000Y-85210000D02*
X76235000Y-85090000D01*
%TO.N,Net-(R14-Pad2)*%
X130270000Y-59490000D02*
X130975455Y-60195455D01*
X127730000Y-56950000D02*
X130270000Y-59490000D01*
X130975455Y-60195455D02*
X132750000Y-60195455D01*
X133770000Y-59175455D02*
X132750000Y-60195455D01*
X122650000Y-56950000D02*
X127730000Y-56950000D01*
X133770000Y-57880000D02*
X133770000Y-59175455D01*
%TO.N,Net-(R15-Pad2)*%
X132269091Y-62030000D02*
X132750000Y-62510909D01*
X122650000Y-59490000D02*
X127730000Y-59490000D01*
X133770000Y-60195455D02*
X133770000Y-61490909D01*
X130270000Y-62030000D02*
X132269091Y-62030000D01*
X127730000Y-59490000D02*
X130270000Y-62030000D01*
X133770000Y-61490909D02*
X132750000Y-62510909D01*
%TO.N,Net-(R16-Pad2)*%
X132493636Y-64570000D02*
X132750000Y-64826364D01*
X130270000Y-64570000D02*
X132493636Y-64570000D01*
X133770000Y-63806364D02*
X132750000Y-64826364D01*
X133770000Y-62510909D02*
X133770000Y-63806364D01*
X127730000Y-62030000D02*
X130270000Y-64570000D01*
X122650000Y-62030000D02*
X127730000Y-62030000D01*
%TO.N,Net-(R17-Pad2)*%
X130835000Y-67110000D02*
X130866818Y-67141818D01*
X122650000Y-64570000D02*
X127730000Y-64570000D01*
X127730000Y-64570000D02*
X130270000Y-67110000D01*
X130270000Y-67110000D02*
X130835000Y-67110000D01*
X130866818Y-67141818D02*
X132750000Y-67141818D01*
X133770000Y-66121818D02*
X132750000Y-67141818D01*
X133770000Y-64826364D02*
X133770000Y-66121818D01*
%TO.N,Net-(R18-Pad2)*%
X133770000Y-67141818D02*
X133770000Y-68437273D01*
X127730000Y-67110000D02*
X130270000Y-69650000D01*
X122650000Y-67110000D02*
X127730000Y-67110000D01*
X130462727Y-69457273D02*
X132750000Y-69457273D01*
X133770000Y-68437273D02*
X132750000Y-69457273D01*
X130270000Y-69650000D02*
X130462727Y-69457273D01*
%TO.N,Net-(R19-Pad2)*%
X122650000Y-69650000D02*
X127730000Y-69650000D01*
X133770000Y-70752727D02*
X132750000Y-71772727D01*
X130270000Y-72190000D02*
X130815000Y-72190000D01*
X131232273Y-71772727D02*
X132750000Y-71772727D01*
X133770000Y-69457273D02*
X133770000Y-70752727D01*
X130815000Y-72190000D02*
X131232273Y-71772727D01*
X127730000Y-69650000D02*
X130270000Y-72190000D01*
%TO.N,Net-(R20-Pad2)*%
X122650000Y-72190000D02*
X127730000Y-72190000D01*
X133770000Y-73068182D02*
X132750000Y-74088182D01*
X133770000Y-71772727D02*
X133770000Y-73068182D01*
X127730000Y-72190000D02*
X130270000Y-74730000D01*
X130270000Y-74730000D02*
X132108182Y-74730000D01*
X132108182Y-74730000D02*
X132750000Y-74088182D01*
%TO.N,Net-(R21-Pad2)*%
X133770000Y-74088182D02*
X133770000Y-75383636D01*
X130270000Y-77270000D02*
X130735000Y-77270000D01*
X127730000Y-74730000D02*
X130270000Y-77270000D01*
X130735000Y-77270000D02*
X131601364Y-76403636D01*
X133770000Y-75383636D02*
X132750000Y-76403636D01*
X122650000Y-74730000D02*
X127730000Y-74730000D01*
X131601364Y-76403636D02*
X132750000Y-76403636D01*
%TO.N,Net-(R23-Pad2)*%
X130270000Y-79810000D02*
X131659091Y-79810000D01*
X133770000Y-77699091D02*
X132750000Y-78719091D01*
X133770000Y-76403636D02*
X133770000Y-77699091D01*
X122650000Y-77270000D02*
X127730000Y-77270000D01*
X131659091Y-79810000D02*
X132750000Y-78719091D01*
X127730000Y-77270000D02*
X130270000Y-79810000D01*
%TO.N,Net-(R24-Pad2)*%
X133770000Y-78719091D02*
X133770000Y-80014545D01*
X122650000Y-79810000D02*
X127730000Y-79810000D01*
X130270000Y-82350000D02*
X131434545Y-82350000D01*
X127730000Y-79810000D02*
X130270000Y-82350000D01*
X133770000Y-80014545D02*
X132750000Y-81034545D01*
X131434545Y-82350000D02*
X132750000Y-81034545D01*
%TO.N,Net-(R25-Pad2)*%
X127730000Y-82350000D02*
X130270000Y-84890000D01*
X122650000Y-82350000D02*
X127730000Y-82350000D01*
X131210000Y-84890000D02*
X132750000Y-83350000D01*
X133770000Y-81034545D02*
X133770000Y-82330000D01*
X133770000Y-82330000D02*
X132750000Y-83350000D01*
X130270000Y-84890000D02*
X131210000Y-84890000D01*
%TO.N,Net-(R27-Pad2)*%
X84155000Y-59390000D02*
X86800000Y-59390000D01*
X86855000Y-61245000D02*
X86780000Y-61320000D01*
X76235000Y-57150000D02*
X81315000Y-57150000D01*
X81315000Y-57150000D02*
X83855000Y-59690000D01*
X83855000Y-59690000D02*
X84155000Y-59390000D01*
X86855000Y-59335000D02*
X86855000Y-61245000D01*
X86800000Y-59390000D02*
X86855000Y-59335000D01*
%TO.N,Net-(R28-Pad2)*%
X85314000Y-63589000D02*
X86780000Y-63589000D01*
X83955000Y-62230000D02*
X85314000Y-63589000D01*
X81315000Y-59690000D02*
X83855000Y-62230000D01*
X88430000Y-61939000D02*
X86780000Y-63589000D01*
X76235000Y-59690000D02*
X81315000Y-59690000D01*
X83855000Y-62230000D02*
X83955000Y-62230000D01*
X88430000Y-61320000D02*
X88430000Y-61939000D01*
%TO.N,Net-(R29-Pad2)*%
X88430000Y-63589000D02*
X88430000Y-64208000D01*
X88430000Y-64208000D02*
X86780000Y-65858000D01*
X83995000Y-64770000D02*
X85083000Y-65858000D01*
X81315000Y-62230000D02*
X83855000Y-64770000D01*
X76235000Y-62230000D02*
X81315000Y-62230000D01*
X83855000Y-64770000D02*
X83995000Y-64770000D01*
X85083000Y-65858000D02*
X86780000Y-65858000D01*
%TO.N,Net-(R30-Pad2)*%
X76235000Y-64770000D02*
X81315000Y-64770000D01*
X83855000Y-67310000D02*
X84035000Y-67310000D01*
X88430000Y-65858000D02*
X88430000Y-66477000D01*
X81315000Y-64770000D02*
X83855000Y-67310000D01*
X88430000Y-66477000D02*
X86780000Y-68127000D01*
X84035000Y-67310000D02*
X84852000Y-68127000D01*
X84852000Y-68127000D02*
X86780000Y-68127000D01*
%TO.N,Net-(R31-Pad2)*%
X81315000Y-67310000D02*
X83855000Y-69850000D01*
X83855000Y-69850000D02*
X84401000Y-70396000D01*
X76235000Y-67310000D02*
X81315000Y-67310000D01*
X84401000Y-70396000D02*
X86780000Y-70396000D01*
X88430000Y-68127000D02*
X88430000Y-68746000D01*
X88430000Y-68746000D02*
X86780000Y-70396000D01*
%TO.N,Net-(R32-Pad2)*%
X81315000Y-69850000D02*
X83855000Y-72390000D01*
X88430000Y-71015000D02*
X86780000Y-72665000D01*
X76235000Y-69850000D02*
X81315000Y-69850000D01*
X86505000Y-72390000D02*
X86780000Y-72665000D01*
X83855000Y-72390000D02*
X86505000Y-72390000D01*
X88430000Y-70396000D02*
X88430000Y-71015000D01*
%TO.N,Net-(R33-Pad2)*%
X81315000Y-72390000D02*
X83855000Y-74930000D01*
X88430000Y-73284000D02*
X86780000Y-74934000D01*
X86780000Y-74934000D02*
X83859000Y-74934000D01*
X83859000Y-74934000D02*
X83855000Y-74930000D01*
X88430000Y-72665000D02*
X88430000Y-73284000D01*
X76235000Y-72390000D02*
X81315000Y-72390000D01*
%TO.N,Net-(R34-Pad2)*%
X81315000Y-74930000D02*
X83855000Y-77470000D01*
X86780000Y-77203000D02*
X84122000Y-77203000D01*
X88430000Y-75553000D02*
X86780000Y-77203000D01*
X76235000Y-74930000D02*
X81315000Y-74930000D01*
X84122000Y-77203000D02*
X83855000Y-77470000D01*
X88430000Y-74934000D02*
X88430000Y-75553000D01*
%TO.N,Net-(R35-Pad2)*%
X88430000Y-77822000D02*
X86780000Y-79472000D01*
X84393000Y-79472000D02*
X83855000Y-80010000D01*
X81315000Y-77470000D02*
X83855000Y-80010000D01*
X86780000Y-79472000D02*
X84393000Y-79472000D01*
X76235000Y-77470000D02*
X81315000Y-77470000D01*
X88430000Y-77203000D02*
X88430000Y-77822000D01*
%TO.N,Net-(R36-Pad2)*%
X88430000Y-79472000D02*
X88430000Y-80091000D01*
X88430000Y-80091000D02*
X86780000Y-81741000D01*
X81315000Y-80010000D02*
X83855000Y-82550000D01*
X84664000Y-81741000D02*
X83855000Y-82550000D01*
X86780000Y-81741000D02*
X84664000Y-81741000D01*
X76235000Y-80010000D02*
X81315000Y-80010000D01*
%TO.N,Net-(R37-Pad2)*%
X86780000Y-84010000D02*
X84935000Y-84010000D01*
X88430000Y-82360000D02*
X86780000Y-84010000D01*
X88430000Y-81741000D02*
X88430000Y-82360000D01*
X83855000Y-85090000D02*
X81315000Y-82550000D01*
X81315000Y-82550000D02*
X76235000Y-82550000D01*
X84935000Y-84010000D02*
X83855000Y-85090000D01*
%TD*%
M02*
